<?xml version="1.0" encoding="UTF-8"?><svg id="a" xmlns="http://www.w3.org/2000/svg" viewBox="0 0 172.18 90.71"><defs><style>.b{fill:#034ea2;}.c{fill:#fff200;}.d{fill:#fff;}.e{fill:#ed1c24;}.f{fill:#231f20;}</style></defs><g><polygon class="b" points="45.36 90.71 0 82.2 0 14.17 45.36 0 45.36 90.71"/><path class="c" d="M0,65.85v-17.66c2.28,.62,4.82,.91,6.5-.1,3.66-2.19,9.21-8.88,9.21-8.88,0,0-2.93,7.22-1.82,9.86,1.17,2.81,8.1,2.96,8.1,2.96,0,0-7.84,4.76-11.48,7.92-3.75,3.22-6.35,15.06-6.35,15.06,0,0-1.82-7.59-4.15-9.18"/><path class="e" d="M45.36,34.69c-1.57,.99-3.11,1.77-4.27,1.99-3.64,.7-7.55-3.48-7.55-3.48,0,0,.92,6.12-1.38,9.89-2.41,3.97-10.18,8.95-10.18,8.95,0,0,8.58-1.66,10.25,1,1.77,2.85,2.01,12.79,2.01,12.79,0,0,4.37-11.93,8.34-13.56,.77-.33,1.74-.63,2.77-.92v-16.66Z"/><path class="d" d="M15.72,39.22s4.38-6.87,4.12-9.31c-.26-2.32-4.81-3.16-4.81-3.16,0,0,5.95-1.46,8.55-3.8,2.5-2.26,4.69-6.93,4.69-6.93,0,0,.55,3.87,2.78,4.43,2.3,.58,8.44-1.9,8.44-1.9,0,0-4.85,4.59-6.75,7.09-1.99,2.61,.8,7.57,.8,7.57,0,0-5.14-1.79-8.02-1.25-2.83,.54-9.81,7.27-9.81,7.27"/></g><g><path class="f" d="M68.03,34.01V17h10.92v2.63h-7.83v4.2h6.97v2.58h-6.97v4.98h8.42v2.63h-11.51Z"/><path class="f" d="M92.23,33.35c-.57,.15-1.32,.3-2.23,.45-.92,.16-1.92,.23-3.02,.23-1.03,0-1.89-.15-2.59-.44-.7-.29-1.25-.7-1.67-1.23-.42-.52-.72-1.15-.9-1.88-.18-.73-.27-1.53-.27-2.39v-7.19h2.97v6.73c0,1.37,.2,2.36,.6,2.95,.4,.59,1.1,.88,2.1,.88,.36,0,.74-.02,1.14-.05,.4-.03,.7-.07,.9-.12v-10.38h2.97v12.45Z"/><path class="f" d="M103.18,23.85c-.25-.08-.59-.17-1.02-.26-.43-.09-.94-.14-1.51-.14-.33,0-.68,.03-1.04,.1-.37,.07-.63,.12-.77,.17v10.29h-2.97v-12.22c.57-.21,1.29-.41,2.15-.6,.86-.19,1.81-.28,2.86-.28,.2,0,.43,.01,.69,.04,.26,.02,.52,.06,.79,.1,.26,.04,.52,.09,.76,.15,.25,.06,.44,.11,.59,.16l-.52,2.5Z"/><path class="f" d="M117.22,27.26c0,1.01-.15,1.94-.44,2.77-.29,.83-.71,1.55-1.25,2.14-.54,.59-1.19,1.05-1.95,1.38-.76,.33-1.6,.49-2.52,.49s-1.75-.16-2.5-.49c-.75-.33-1.4-.79-1.94-1.38-.54-.59-.96-1.3-1.26-2.14-.3-.84-.45-1.76-.45-2.77s.15-1.94,.45-2.76c.3-.83,.73-1.53,1.28-2.12,.55-.59,1.2-1.04,1.95-1.36,.75-.32,1.58-.48,2.48-.48s1.73,.16,2.49,.48c.76,.32,1.41,.77,1.95,1.36,.54,.59,.96,1.3,1.26,2.12,.3,.83,.45,1.75,.45,2.76Zm-3.04,0c0-1.28-.27-2.29-.82-3.03-.55-.74-1.31-1.12-2.29-1.12s-1.75,.37-2.3,1.12c-.55,.74-.82,1.75-.82,3.03s.27,2.32,.82,3.07c.55,.75,1.31,1.13,2.3,1.13s1.75-.38,2.29-1.13c.55-.75,.82-1.78,.82-3.07Z"/><path class="f" d="M131.7,27.61c0,.98-.13,1.88-.38,2.7-.25,.82-.62,1.52-1.09,2.11-.47,.59-1.07,1.05-1.78,1.38-.71,.33-1.52,.49-2.42,.49-.61,0-1.16-.07-1.67-.22-.51-.15-.92-.31-1.25-.49v4.98h-2.97V21.59c.6-.16,1.35-.32,2.23-.47,.88-.15,1.82-.22,2.8-.22s1.92,.16,2.72,.47c.8,.31,1.49,.76,2.05,1.34,.56,.58,1,1.28,1.3,2.11,.3,.83,.45,1.76,.45,2.79Zm-3.04,.05c0-1.33-.3-2.36-.9-3.09-.6-.74-1.56-1.1-2.88-1.1-.28,0-.57,.01-.87,.04-.3,.02-.6,.08-.9,.16v7.34c.26,.18,.61,.35,1.04,.5,.43,.16,.9,.23,1.39,.23,1.08,0,1.87-.37,2.37-1.1,.5-.74,.75-1.73,.75-2.97Z"/><path class="f" d="M133.91,27.36c0-1.13,.17-2.12,.5-2.97,.33-.85,.78-1.56,1.34-2.12,.56-.56,1.19-.99,1.92-1.28,.72-.29,1.46-.43,2.21-.43,1.77,0,3.15,.55,4.14,1.64,.99,1.1,1.48,2.73,1.48,4.91,0,.16,0,.35-.01,.55,0,.21-.02,.39-.04,.55h-8.47c.08,1.03,.45,1.83,1.09,2.39,.65,.56,1.58,.85,2.81,.85,.72,0,1.38-.06,1.98-.2,.6-.13,1.07-.27,1.41-.42l.39,2.43c-.16,.08-.39,.17-.68,.26-.29,.09-.61,.17-.98,.25-.37,.07-.77,.14-1.19,.18-.43,.05-.86,.07-1.3,.07-1.13,0-2.11-.17-2.95-.5-.83-.34-1.52-.8-2.06-1.4-.54-.6-.94-1.3-1.2-2.11-.26-.81-.39-1.7-.39-2.66Zm8.62-1.33c0-.41-.06-.8-.17-1.17-.12-.37-.28-.69-.5-.96-.22-.27-.49-.48-.81-.64-.32-.16-.7-.23-1.14-.23s-.86,.09-1.2,.26c-.34,.17-.63,.4-.87,.68s-.42,.6-.55,.96c-.13,.36-.22,.73-.27,1.1h5.52Z"/><path class="f" d="M152.76,20.61c.98,0,1.81,.12,2.48,.37,.67,.25,1.21,.59,1.61,1.03,.4,.44,.69,.98,.86,1.61,.17,.63,.26,1.32,.26,2.07v7.78c-.46,.1-1.15,.22-2.08,.36-.92,.14-1.97,.21-3.13,.21-.77,0-1.47-.07-2.11-.22-.64-.15-1.18-.38-1.63-.71-.45-.33-.8-.75-1.06-1.28s-.38-1.17-.38-1.94,.14-1.36,.43-1.87c.29-.51,.68-.92,1.17-1.24,.49-.32,1.06-.55,1.71-.69,.65-.14,1.32-.21,2.03-.21,.33,0,.67,.02,1.03,.06,.36,.04,.74,.11,1.15,.21v-.49c0-.34-.04-.67-.12-.98-.08-.31-.23-.58-.43-.82-.21-.24-.47-.42-.81-.55-.33-.13-.76-.2-1.26-.2-.69,0-1.32,.05-1.89,.15-.57,.1-1.04,.21-1.4,.34l-.37-2.41c.38-.13,.92-.26,1.65-.39,.72-.13,1.49-.2,2.31-.2Zm.25,11.07c.92,0,1.61-.05,2.09-.15v-3.29c-.16-.05-.4-.1-.71-.15-.31-.05-.65-.07-1.03-.07-.33,0-.66,.02-.99,.07-.34,.05-.64,.14-.91,.27-.27,.13-.49,.32-.65,.55-.16,.24-.25,.54-.25,.9,0,.7,.22,1.19,.66,1.46,.44,.27,1.04,.41,1.79,.41Z"/><path class="f" d="M161.46,21.59c.57-.16,1.32-.32,2.23-.47,.92-.15,1.93-.22,3.04-.22,1.05,0,1.92,.14,2.63,.43,.7,.29,1.26,.69,1.68,1.2,.42,.52,.71,1.14,.88,1.87,.17,.73,.26,1.53,.26,2.39v7.22h-2.97v-6.75c0-.69-.04-1.27-.13-1.76-.09-.48-.24-.88-.44-1.18-.2-.3-.48-.52-.83-.66-.35-.14-.78-.21-1.29-.21-.38,0-.77,.02-1.18,.07-.41,.05-.71,.09-.91,.12v10.36h-2.97v-12.42Z"/><path class="f" d="M68.03,56.69v-17.01h10.75v2.63h-7.66v4.35h6.8v2.63h-6.8v7.41h-3.09Z"/><path class="f" d="M91.25,56.03c-.57,.15-1.32,.3-2.23,.45-.92,.16-1.92,.23-3.02,.23-1.03,0-1.89-.15-2.59-.44-.7-.29-1.25-.7-1.67-1.23-.42-.52-.72-1.15-.9-1.88-.18-.73-.27-1.53-.27-2.39v-7.19h2.97v6.73c0,1.37,.2,2.36,.6,2.95,.4,.59,1.1,.88,2.1,.88,.36,0,.74-.02,1.14-.05,.4-.03,.7-.07,.9-.12v-10.38h2.97v12.45Z"/><path class="f" d="M94.88,44.27c.57-.16,1.32-.32,2.23-.47s1.93-.22,3.04-.22c1.05,0,1.92,.14,2.63,.43,.7,.29,1.26,.69,1.68,1.2,.42,.52,.71,1.14,.88,1.87,.17,.73,.26,1.53,.26,2.39v7.22h-2.97v-6.75c0-.69-.05-1.27-.14-1.76-.09-.48-.24-.88-.44-1.18s-.48-.52-.83-.66c-.35-.14-.78-.21-1.29-.21-.38,0-.77,.02-1.18,.07-.41,.05-.71,.09-.91,.12v10.36h-2.97v-12.42Z"/><path class="f" d="M119.94,56c-.59,.18-1.33,.34-2.22,.49-.89,.15-1.83,.22-2.81,.22s-1.92-.16-2.72-.47c-.8-.31-1.49-.76-2.05-1.34-.56-.58-1-1.28-1.3-2.11-.3-.83-.45-1.76-.45-2.79s.13-1.93,.38-2.76c.25-.83,.63-1.53,1.12-2.12,.49-.59,1.09-1.04,1.79-1.36,.7-.32,1.51-.48,2.43-.48,.62,0,1.17,.07,1.64,.22,.47,.15,.88,.31,1.23,.49v-3.83l2.97-.49v16.32Zm-8.52-6.06c0,1.31,.31,2.34,.93,3.08,.62,.74,1.48,1.12,2.58,1.12,.47,0,.88-.02,1.22-.06,.33-.04,.61-.09,.82-.14v-7.36c-.26-.18-.61-.35-1.04-.5-.43-.16-.9-.23-1.39-.23-1.08,0-1.87,.37-2.37,1.1s-.75,1.73-.75,3Z"/><path class="f" d="M126.79,54.26c.79,0,1.36-.09,1.72-.28,.36-.19,.54-.51,.54-.97,0-.43-.19-.78-.58-1.06-.38-.28-1.02-.58-1.9-.91-.54-.2-1.04-.41-1.48-.63-.45-.22-.84-.48-1.17-.77-.33-.29-.59-.65-.77-1.07-.19-.42-.28-.93-.28-1.53,0-1.18,.43-2.11,1.3-2.79,.87-.68,2.04-1.02,3.54-1.02,.75,0,1.47,.07,2.16,.21,.69,.14,1.2,.27,1.55,.41l-.54,2.41c-.33-.15-.74-.28-1.25-.4-.51-.12-1.1-.18-1.77-.18-.61,0-1.1,.1-1.47,.31-.38,.2-.56,.52-.56,.95,0,.21,.04,.4,.11,.56,.07,.16,.2,.32,.38,.45,.18,.14,.42,.28,.71,.42,.29,.14,.65,.28,1.08,.43,.7,.26,1.3,.52,1.79,.77,.49,.25,.9,.54,1.21,.86,.32,.32,.55,.68,.7,1.09,.15,.41,.22,.9,.22,1.47,0,1.23-.45,2.16-1.36,2.79s-2.21,.94-3.89,.94c-1.13,0-2.04-.09-2.72-.28-.69-.19-1.17-.34-1.45-.45l.52-2.48c.44,.18,.97,.35,1.58,.52,.61,.16,1.31,.25,2.1,.25Z"/></g><g><path class="f" d="M70.65,78.02c1.64,0,2.46-.56,2.46-1.68,0-.35-.07-.64-.22-.88-.15-.24-.34-.45-.59-.63-.25-.18-.53-.33-.85-.46-.32-.13-.66-.26-1.01-.39-.41-.14-.8-.3-1.17-.48-.37-.18-.69-.39-.96-.63-.27-.24-.48-.53-.64-.87-.16-.33-.23-.74-.23-1.21,0-.98,.33-1.75,1-2.3,.67-.55,1.59-.83,2.77-.83,.68,0,1.3,.07,1.85,.22,.56,.15,.96,.31,1.22,.48l-.5,1.28c-.23-.14-.56-.28-1.01-.41-.45-.13-.97-.2-1.56-.2-.3,0-.58,.03-.84,.1-.26,.06-.49,.16-.68,.29-.19,.13-.35,.29-.46,.49-.11,.2-.17,.43-.17,.7,0,.3,.06,.56,.18,.76,.12,.21,.29,.39,.5,.54,.22,.16,.47,.3,.75,.43,.29,.13,.6,.26,.95,.39,.49,.19,.93,.39,1.34,.58,.4,.19,.76,.43,1.05,.7,.3,.27,.53,.59,.69,.96,.16,.37,.24,.82,.24,1.35,0,.98-.36,1.74-1.08,2.27-.72,.53-1.73,.79-3.04,.79-.44,0-.85-.03-1.22-.09-.37-.06-.7-.13-1-.21-.29-.08-.54-.17-.75-.26-.21-.09-.38-.17-.49-.23l.47-1.3c.25,.14,.63,.3,1.13,.47,.51,.17,1.13,.26,1.86,.26Z"/><path class="f" d="M76.48,71.2c.35-.09,.8-.18,1.37-.28,.57-.1,1.22-.15,1.97-.15,.54,0,.99,.07,1.36,.22,.37,.15,.67,.36,.92,.64,.08-.05,.19-.13,.36-.23,.16-.1,.36-.19,.6-.28,.24-.09,.5-.17,.79-.24,.29-.07,.6-.1,.94-.1,.65,0,1.18,.09,1.59,.28,.41,.19,.73,.46,.96,.8,.23,.35,.39,.76,.47,1.23,.08,.48,.12,.99,.12,1.56v4.73h-1.51v-4.41c0-.5-.02-.92-.07-1.28-.05-.36-.14-.65-.28-.89-.14-.24-.32-.41-.55-.53-.23-.11-.53-.17-.9-.17-.51,0-.93,.07-1.26,.2-.33,.14-.55,.26-.67,.36,.09,.28,.15,.59,.19,.92,.04,.33,.06,.69,.06,1.05v4.73h-1.51v-4.41c0-.5-.03-.92-.08-1.28-.05-.36-.15-.65-.28-.89-.14-.24-.32-.41-.55-.53-.23-.11-.53-.17-.88-.17-.15,0-.31,0-.49,.02-.17,.01-.34,.02-.49,.04-.16,.02-.3,.04-.43,.06-.13,.02-.22,.04-.26,.05v7.11h-1.51v-8.18Z"/><path class="f" d="M93.07,70.59c.6,0,1.12,.08,1.53,.23,.42,.16,.75,.38,1,.66s.43,.63,.54,1.02c.11,.39,.16,.83,.16,1.3v5.27c-.13,.02-.31,.05-.54,.09-.23,.04-.49,.07-.79,.11-.29,.03-.61,.06-.95,.09-.34,.03-.68,.04-1.01,.04-.48,0-.91-.05-1.31-.15-.4-.1-.75-.25-1.04-.46-.29-.21-.52-.49-.68-.83-.16-.35-.24-.76-.24-1.25s.09-.86,.28-1.2c.19-.34,.45-.6,.77-.81,.32-.21,.7-.36,1.13-.45,.43-.1,.89-.15,1.36-.15,.15,0,.31,0,.47,.02,.16,.02,.32,.04,.46,.07,.15,.03,.27,.05,.38,.07s.18,.04,.23,.05v-.42c0-.25-.03-.49-.08-.74-.05-.24-.15-.46-.29-.65-.14-.19-.33-.34-.57-.45-.24-.11-.56-.17-.95-.17-.5,0-.93,.04-1.3,.11-.37,.07-.65,.14-.83,.22l-.18-1.25c.19-.09,.52-.17,.97-.25,.45-.08,.94-.12,1.47-.12Zm.13,7.55c.36,0,.67,0,.95-.02,.28-.02,.5-.05,.69-.09v-2.51c-.11-.05-.28-.1-.53-.14-.24-.04-.54-.06-.88-.06-.23,0-.47,.02-.72,.05-.25,.03-.49,.1-.7,.2-.21,.1-.39,.24-.53,.42-.14,.18-.21,.41-.21,.71,0,.54,.17,.91,.52,1.13,.35,.21,.82,.32,1.41,.32Z"/><path class="f" d="M101.84,70.78c.13,0,.28,0,.45,.02,.17,.02,.33,.04,.49,.06,.16,.03,.31,.05,.45,.08,.13,.03,.23,.05,.3,.07l-.26,1.31c-.12-.04-.32-.09-.59-.15-.28-.06-.63-.09-1.06-.09-.28,0-.56,.03-.83,.09-.28,.06-.46,.1-.54,.12v7.08h-1.51v-8.07c.36-.13,.8-.25,1.33-.36,.53-.11,1.12-.17,1.78-.17Z"/><path class="f" d="M106.31,70.77h3.19v1.26h-3.19v3.89c0,.42,.03,.77,.1,1.04,.06,.28,.16,.49,.29,.65,.13,.16,.29,.27,.49,.33,.19,.06,.42,.1,.68,.1,.45,0,.82-.05,1.09-.15,.28-.1,.47-.18,.58-.22l.29,1.25c-.15,.08-.42,.17-.79,.28-.38,.11-.81,.17-1.3,.17-.57,0-1.05-.07-1.42-.22-.37-.15-.67-.36-.9-.66-.23-.29-.39-.65-.48-1.08s-.14-.92-.14-1.48v-7.52l1.51-.26v2.61Z"/><path class="f" d="M121.94,73.63h1.57v5.25c-.13,.04-.32,.09-.56,.15-.24,.05-.52,.11-.84,.16-.32,.05-.67,.1-1.04,.14-.38,.04-.76,.06-1.15,.06-.79,0-1.51-.13-2.15-.39-.65-.26-1.2-.64-1.67-1.13-.46-.5-.82-1.11-1.08-1.83-.25-.72-.38-1.56-.38-2.49s.14-1.77,.43-2.5c.29-.73,.67-1.34,1.16-1.84,.49-.5,1.06-.87,1.71-1.13,.65-.26,1.35-.39,2.1-.39,.51,0,.96,.03,1.35,.1,.39,.06,.73,.14,1.01,.23,.28,.09,.51,.17,.69,.26,.18,.09,.3,.15,.36,.19l-.5,1.31c-.31-.21-.73-.38-1.25-.51-.52-.13-1.05-.2-1.59-.2-.57,0-1.09,.1-1.56,.31-.47,.21-.87,.5-1.2,.89-.33,.39-.59,.86-.77,1.42-.18,.56-.28,1.18-.28,1.87s.08,1.28,.23,1.83c.16,.55,.39,1.02,.71,1.42,.32,.39,.71,.7,1.18,.92,.47,.22,1.02,.32,1.66,.32,.45,0,.84-.02,1.16-.07,.32-.05,.55-.09,.69-.14v-4.18Z"/><path class="f" d="M128.91,70.78c.13,0,.28,0,.45,.02,.17,.02,.33,.04,.49,.06,.16,.03,.31,.05,.45,.08,.14,.03,.24,.05,.3,.07l-.26,1.31c-.12-.04-.32-.09-.59-.15-.28-.06-.63-.09-1.06-.09-.28,0-.56,.03-.83,.09-.28,.06-.46,.1-.54,.12v7.08h-1.51v-8.07c.36-.13,.8-.25,1.33-.36,.53-.11,1.12-.17,1.78-.17Z"/><path class="f" d="M139.4,74.98c0,.67-.1,1.27-.29,1.81-.19,.54-.47,1-.82,1.39-.35,.39-.77,.69-1.26,.9-.49,.21-1.01,.32-1.59,.32s-1.1-.1-1.59-.32c-.49-.21-.9-.51-1.26-.9-.35-.39-.62-.85-.82-1.39-.19-.54-.29-1.14-.29-1.81s.1-1.26,.29-1.81c.19-.54,.47-1.01,.82-1.4,.35-.39,.77-.69,1.26-.9,.49-.21,1.01-.32,1.59-.32s1.1,.11,1.59,.32c.49,.21,.91,.51,1.26,.9,.35,.39,.62,.86,.82,1.4,.19,.55,.29,1.15,.29,1.81Zm-1.57,0c0-.95-.21-1.7-.64-2.26-.43-.56-1.01-.83-1.74-.83s-1.32,.28-1.74,.83c-.43,.56-.64,1.31-.64,2.26s.21,1.7,.64,2.26c.43,.56,1.01,.83,1.74,.83s1.31-.28,1.74-.83c.43-.56,.64-1.31,.64-2.26Z"/><path class="f" d="M148.12,79.38c-.3-.78-.62-1.67-.96-2.67-.34-1-.65-2.04-.93-3.12-.28,1.08-.59,2.12-.92,3.12-.33,1-.65,1.89-.96,2.67h-1.31c-.5-1.11-.98-2.38-1.46-3.81-.47-1.43-.92-2.96-1.34-4.62h1.62c.11,.51,.24,1.06,.39,1.65,.15,.59,.31,1.19,.48,1.78,.17,.59,.34,1.17,.53,1.72s.36,1.03,.52,1.44c.18-.51,.36-1.04,.54-1.61,.18-.57,.35-1.14,.51-1.72s.32-1.14,.46-1.7c.15-.56,.27-1.08,.38-1.56h1.25c.1,.49,.22,1.01,.36,1.56,.14,.56,.29,1.12,.45,1.7s.33,1.15,.51,1.72c.18,.57,.36,1.1,.54,1.61,.16-.41,.33-.89,.51-1.44,.18-.55,.35-1.12,.53-1.72,.17-.59,.33-1.19,.49-1.78,.15-.59,.28-1.14,.39-1.65h1.56c-.42,1.65-.87,3.19-1.34,4.62-.48,1.43-.96,2.69-1.46,3.81h-1.31Z"/><path class="f" d="M155.15,70.77h3.19v1.26h-3.19v3.89c0,.42,.03,.77,.1,1.04,.06,.28,.16,.49,.29,.65,.13,.16,.29,.27,.49,.33,.19,.06,.42,.1,.68,.1,.45,0,.82-.05,1.09-.15,.28-.1,.47-.18,.58-.22l.29,1.25c-.15,.08-.42,.17-.79,.28-.38,.11-.81,.17-1.3,.17-.57,0-1.04-.07-1.42-.22-.37-.15-.67-.36-.9-.66-.23-.29-.39-.65-.48-1.08-.09-.43-.14-.92-.14-1.48v-7.52l1.51-.26v2.61Z"/><path class="f" d="M160.17,79.38v-12.31l1.51-.26v4.31c.28-.11,.58-.19,.9-.25,.32-.06,.63-.09,.95-.09,.67,0,1.23,.09,1.67,.28,.44,.19,.8,.45,1.06,.79,.26,.34,.45,.75,.56,1.22,.11,.48,.16,1,.16,1.57v4.73h-1.51v-4.41c0-.52-.04-.96-.11-1.33s-.19-.66-.35-.89c-.16-.23-.38-.39-.65-.49-.27-.1-.61-.15-1-.15-.16,0-.33,.01-.5,.03-.17,.02-.34,.05-.49,.07-.16,.03-.3,.06-.42,.09-.12,.03-.21,.06-.27,.08v7h-1.51Z"/></g></svg>