<?xml version="1.0" encoding="UTF-8"?><svg id="a" xmlns="http://www.w3.org/2000/svg" viewBox="0 0 301.06 68.02"><defs><style>.b{fill:#034ea2;}.c{fill:#fff200;}.d{fill:#231f20;}</style></defs><g><rect class="b" x="199.03" width="102.04" height="68.02"/><polygon class="c" points="247.87 14.83 250.03 13.25 252.18 14.83 251.36 12.29 253.55 10.71 250.85 10.71 250.03 8.14 249.2 10.71 246.5 10.71 248.68 12.29 247.87 14.83"/><polygon class="c" points="236.73 17.82 238.88 16.24 241.03 17.82 240.21 15.28 242.4 13.7 239.71 13.7 238.88 11.13 238.06 13.71 235.37 13.7 237.55 15.28 236.73 17.82"/><polygon class="c" points="230.72 19.3 229.9 21.88 227.21 21.88 229.39 23.45 228.57 25.99 230.72 24.42 232.88 25.99 232.06 23.45 234.25 21.88 231.55 21.88 230.72 19.3"/><polygon class="c" points="227.74 35.54 229.89 37.12 229.07 34.58 231.26 33 228.56 33 227.74 30.43 226.9 33.01 224.21 33 226.4 34.58 225.58 37.12 227.74 35.54"/><polygon class="c" points="231.55 44.16 230.72 41.59 229.9 44.16 227.21 44.16 229.39 45.74 228.57 48.28 230.72 46.7 232.88 48.28 232.06 45.74 234.25 44.16 231.55 44.16"/><polygon class="c" points="239.72 52.33 238.89 49.76 238.07 52.34 235.37 52.33 237.56 53.91 236.74 56.44 238.89 54.87 241.05 56.44 240.23 53.91 242.42 52.33 239.72 52.33"/><polygon class="c" points="250.85 55.29 250.03 52.71 249.2 55.29 246.5 55.29 248.69 56.86 247.87 59.4 250.03 57.83 252.18 59.4 251.35 56.86 253.55 55.29 250.85 55.29"/><polygon class="c" points="261.98 52.33 261.15 49.76 260.32 52.34 257.64 52.33 259.81 53.91 259 56.44 261.15 54.87 263.31 56.44 262.49 53.91 264.68 52.33 261.98 52.33"/><polygon class="c" points="270.15 44.16 269.32 41.59 268.5 44.16 265.81 44.16 267.99 45.74 267.16 48.28 269.32 46.7 271.48 48.28 270.66 45.74 272.85 44.16 270.15 44.16"/><polygon class="c" points="275.8 32.97 273.1 32.97 272.29 30.4 271.45 32.97 268.76 32.97 270.95 34.55 270.12 37.09 272.29 35.51 274.44 37.09 273.62 34.55 275.8 32.97"/><polygon class="c" points="267.16 25.95 269.32 24.39 271.48 25.95 270.66 23.41 272.85 21.85 270.15 21.85 269.32 19.26 268.5 21.85 265.81 21.85 267.99 23.41 267.16 25.95"/><polygon class="c" points="261.18 11.13 260.37 13.71 257.66 13.7 259.85 15.28 259.04 17.82 261.2 16.24 263.34 17.82 262.52 15.28 264.71 13.7 262.01 13.7 261.18 11.13"/></g><g><path class="d" d="M32.55,44.28v-11.23h6.85v1.34h-5.28v3.34h4.7v1.31h-4.7v3.89h5.69v1.34h-7.26Z"/><path class="d" d="M48.02,43.86c-.35,.09-.8,.18-1.37,.28-.57,.1-1.22,.15-1.97,.15-.65,0-1.19-.09-1.64-.28-.44-.19-.8-.46-1.07-.8-.27-.35-.46-.75-.58-1.22-.12-.47-.18-.99-.18-1.56v-4.73h1.51v4.41c0,1.03,.16,1.76,.49,2.2,.32,.44,.87,.66,1.64,.66,.16,0,.33,0,.5-.02,.17-.01,.33-.02,.49-.04,.15-.02,.29-.03,.41-.05,.12-.02,.21-.04,.27-.06v-7.11h1.51v8.18Z"/><path class="d" d="M53.64,35.68c.13,0,.28,0,.45,.02,.17,.02,.33,.04,.49,.06,.16,.03,.31,.05,.45,.08,.13,.03,.23,.05,.3,.07l-.26,1.31c-.12-.04-.32-.09-.59-.15-.28-.06-.63-.09-1.06-.09-.28,0-.56,.03-.83,.09-.28,.06-.46,.1-.54,.12v7.08h-1.51v-8.07c.36-.13,.8-.25,1.33-.36,.53-.11,1.12-.17,1.78-.17Z"/><path class="d" d="M64.14,39.87c0,.67-.1,1.27-.29,1.81-.19,.54-.47,1-.82,1.39s-.77,.69-1.26,.9c-.49,.21-1.02,.32-1.59,.32s-1.1-.11-1.59-.32c-.49-.21-.9-.51-1.26-.9-.35-.39-.62-.85-.82-1.39-.19-.54-.29-1.15-.29-1.81s.1-1.26,.29-1.81c.19-.55,.47-1.01,.82-1.4,.35-.39,.77-.69,1.26-.9,.49-.21,1.02-.32,1.59-.32s1.1,.11,1.59,.32c.49,.21,.9,.51,1.26,.9,.35,.39,.62,.86,.82,1.4,.19,.55,.29,1.15,.29,1.81Zm-1.57,0c0-.95-.21-1.7-.64-2.26-.43-.56-1.01-.83-1.74-.83s-1.31,.28-1.74,.83c-.43,.56-.64,1.31-.64,2.26s.21,1.7,.64,2.26c.43,.56,1.01,.83,1.74,.83s1.31-.28,1.74-.83c.43-.56,.64-1.31,.64-2.26Z"/><path class="d" d="M73.6,40.09c0,.64-.08,1.23-.25,1.77-.17,.54-.41,1-.74,1.39-.32,.39-.72,.69-1.19,.91-.47,.22-1.01,.32-1.61,.32-.49,0-.92-.06-1.29-.19-.37-.13-.65-.25-.83-.37v3.37h-1.51v-11.16c.36-.09,.8-.18,1.34-.28s1.15-.15,1.85-.15c.65,0,1.23,.1,1.75,.31,.52,.21,.96,.5,1.33,.88s.65,.84,.85,1.38c.2,.55,.3,1.16,.3,1.84Zm-1.57,0c0-.98-.24-1.74-.73-2.27-.49-.53-1.13-.79-1.94-.79-.45,0-.81,.02-1.06,.05-.25,.03-.46,.07-.61,.11v5.31c.18,.15,.45,.3,.79,.44,.35,.14,.72,.21,1.13,.21,.43,0,.8-.08,1.11-.24,.31-.16,.56-.37,.75-.65,.19-.28,.34-.6,.42-.97,.09-.37,.13-.77,.13-1.21Z"/><path class="d" d="M75.17,39.89c0-.75,.11-1.4,.32-1.95,.22-.56,.5-1.02,.86-1.39,.36-.37,.77-.64,1.23-.83,.46-.18,.94-.28,1.43-.28,1.13,0,2,.35,2.61,1.06,.6,.71,.91,1.79,.91,3.23v.25c0,.1,0,.2-.02,.28h-5.77c.06,.88,.32,1.54,.76,1.99,.44,.45,1.13,.68,2.07,.68,.53,0,.97-.05,1.34-.14,.36-.09,.63-.18,.82-.27l.21,1.26c-.18,.1-.5,.2-.96,.31-.46,.11-.98,.16-1.56,.16-.73,0-1.37-.11-1.9-.33-.53-.22-.97-.53-1.32-.92-.35-.39-.6-.85-.77-1.38-.17-.53-.25-1.12-.25-1.76Zm5.78-.83c.01-.68-.16-1.24-.51-1.68-.35-.44-.83-.66-1.45-.66-.35,0-.65,.07-.92,.2-.26,.14-.49,.31-.67,.53-.18,.22-.33,.46-.43,.75-.1,.28-.17,.57-.2,.86h4.18Z"/><path class="d" d="M87.33,35.48c.61,0,1.12,.08,1.53,.23,.42,.16,.75,.38,1,.66s.43,.63,.54,1.02c.11,.39,.16,.83,.16,1.3v5.27c-.13,.02-.31,.05-.54,.09-.23,.04-.49,.07-.79,.11-.29,.03-.61,.06-.95,.09-.34,.03-.68,.04-1.01,.04-.48,0-.91-.05-1.31-.15-.4-.1-.75-.25-1.04-.46-.29-.21-.52-.49-.68-.83-.16-.35-.24-.76-.24-1.25s.09-.86,.28-1.2c.19-.34,.45-.61,.77-.81,.32-.21,.7-.36,1.13-.45,.43-.1,.89-.15,1.36-.15,.15,0,.31,0,.47,.02,.16,.02,.32,.04,.46,.06,.15,.03,.27,.05,.38,.07s.18,.04,.23,.05v-.42c0-.25-.03-.49-.08-.74-.05-.24-.15-.46-.29-.65-.14-.19-.33-.34-.57-.45-.24-.11-.56-.17-.95-.17-.5,0-.93,.04-1.3,.1-.37,.07-.65,.14-.83,.22l-.18-1.25c.19-.09,.52-.17,.97-.25,.45-.08,.94-.12,1.47-.12Zm.13,7.55c.36,0,.67,0,.95-.02,.28-.02,.5-.05,.69-.09v-2.51c-.11-.05-.28-.1-.53-.14-.24-.04-.54-.06-.88-.06-.23,0-.47,.02-.72,.05-.25,.03-.49,.1-.7,.2-.21,.1-.39,.24-.53,.42-.14,.18-.21,.41-.21,.71,0,.54,.17,.91,.52,1.13,.35,.21,.82,.32,1.41,.32Z"/><path class="d" d="M92.99,36.1c.35-.09,.8-.18,1.38-.28,.57-.1,1.23-.15,1.98-.15,.67,0,1.23,.09,1.67,.28,.44,.19,.8,.45,1.06,.79,.26,.34,.45,.75,.56,1.22s.16,1,.16,1.57v4.73h-1.51v-4.41c0-.52-.04-.96-.11-1.33-.07-.37-.19-.66-.35-.89-.16-.23-.38-.39-.65-.49-.27-.1-.61-.15-1-.15-.16,0-.33,0-.5,.02-.17,.01-.34,.02-.49,.04-.16,.02-.3,.04-.42,.06-.12,.02-.21,.04-.27,.05v7.11h-1.51v-8.18Z"/><path class="d" d="M108.57,42.92c1.64,0,2.46-.56,2.46-1.68,0-.35-.07-.64-.22-.88-.15-.24-.34-.45-.59-.63-.25-.18-.53-.33-.85-.46-.32-.13-.66-.26-1.01-.39-.41-.14-.8-.3-1.17-.48-.37-.18-.69-.39-.96-.63-.27-.24-.48-.53-.64-.87-.16-.33-.23-.74-.23-1.21,0-.98,.33-1.75,1-2.3,.67-.55,1.59-.83,2.77-.83,.68,0,1.3,.07,1.85,.22,.56,.15,.96,.31,1.22,.48l-.5,1.28c-.23-.14-.56-.28-1.01-.41-.45-.13-.97-.2-1.56-.2-.3,0-.58,.03-.84,.1-.26,.06-.49,.16-.68,.29-.19,.13-.35,.29-.46,.49-.11,.2-.17,.43-.17,.7,0,.3,.06,.56,.18,.76,.12,.21,.29,.39,.5,.54,.22,.16,.47,.3,.75,.43,.29,.13,.6,.26,.95,.39,.49,.19,.93,.39,1.34,.58,.4,.19,.76,.43,1.05,.7,.3,.27,.53,.59,.69,.96,.16,.37,.24,.82,.24,1.35,0,.98-.36,1.74-1.08,2.27-.72,.53-1.73,.79-3.04,.79-.44,0-.85-.03-1.22-.09-.37-.06-.7-.13-1-.21-.29-.08-.54-.17-.75-.26-.21-.09-.38-.17-.49-.23l.47-1.3c.25,.14,.63,.3,1.13,.47,.51,.17,1.13,.26,1.86,.26Z"/><path class="d" d="M115.81,35.66h3.19v1.26h-3.19v3.89c0,.42,.03,.77,.1,1.04,.06,.28,.16,.49,.29,.65,.13,.16,.29,.27,.49,.33,.19,.06,.42,.1,.68,.1,.45,0,.82-.05,1.09-.15,.28-.1,.47-.18,.58-.22l.29,1.25c-.15,.08-.42,.17-.79,.28-.38,.11-.81,.17-1.3,.17-.57,0-1.04-.07-1.42-.22-.37-.15-.67-.36-.9-.66-.23-.29-.39-.65-.48-1.08-.09-.43-.14-.92-.14-1.48v-7.52l1.51-.26v2.61Z"/><path class="d" d="M123.94,35.68c.13,0,.28,0,.45,.02,.17,.02,.33,.04,.49,.06,.16,.03,.31,.05,.45,.08,.13,.03,.23,.05,.3,.07l-.26,1.31c-.12-.04-.32-.09-.59-.15-.28-.06-.63-.09-1.06-.09-.28,0-.56,.03-.83,.09-.28,.06-.46,.1-.54,.12v7.08h-1.51v-8.07c.36-.13,.8-.25,1.33-.36,.53-.11,1.12-.17,1.78-.17Z"/><path class="d" d="M133.71,43.86c-.35,.09-.8,.18-1.37,.28-.57,.1-1.22,.15-1.97,.15-.65,0-1.19-.09-1.64-.28-.44-.19-.8-.46-1.07-.8s-.46-.75-.58-1.22c-.12-.47-.18-.99-.18-1.56v-4.73h1.51v4.41c0,1.03,.16,1.76,.49,2.2,.32,.44,.87,.66,1.64,.66,.16,0,.33,0,.5-.02,.17-.01,.33-.02,.49-.04,.15-.02,.29-.03,.41-.05,.12-.02,.21-.04,.27-.06v-7.11h1.51v8.18Z"/><path class="d" d="M139.88,44.3c-.68,0-1.28-.11-1.79-.32-.51-.22-.94-.52-1.3-.91-.35-.39-.61-.85-.79-1.39-.17-.53-.26-1.13-.26-1.77s.09-1.24,.28-1.78c.19-.54,.46-1.01,.8-1.4,.35-.39,.77-.7,1.27-.92,.5-.22,1.06-.33,1.68-.33,.38,0,.76,.03,1.13,.1,.38,.06,.74,.17,1.09,.31l-.34,1.28c-.23-.11-.49-.19-.79-.26-.3-.06-.61-.1-.95-.1-.84,0-1.49,.26-1.94,.79-.45,.53-.67,1.3-.67,2.32,0,.45,.05,.87,.15,1.25,.1,.38,.26,.7,.49,.97,.22,.27,.5,.48,.85,.62,.35,.15,.77,.22,1.26,.22,.4,0,.76-.04,1.09-.11,.32-.08,.58-.16,.76-.24l.21,1.26c-.09,.05-.21,.1-.37,.15-.16,.05-.35,.09-.55,.13-.21,.04-.42,.07-.66,.1-.23,.03-.46,.04-.67,.04Z"/><path class="d" d="M145.09,35.66h3.19v1.26h-3.19v3.89c0,.42,.03,.77,.1,1.04,.06,.28,.16,.49,.29,.65,.13,.16,.29,.27,.49,.33,.19,.06,.42,.1,.68,.1,.45,0,.82-.05,1.09-.15,.28-.1,.47-.18,.58-.22l.29,1.25c-.15,.08-.42,.17-.79,.28-.38,.11-.81,.17-1.3,.17-.57,0-1.05-.07-1.42-.22-.37-.15-.67-.36-.9-.66-.23-.29-.39-.65-.48-1.08-.09-.43-.14-.92-.14-1.48v-7.52l1.51-.26v2.61Z"/><path class="d" d="M156.81,43.86c-.35,.09-.8,.18-1.37,.28-.57,.1-1.22,.15-1.97,.15-.65,0-1.19-.09-1.64-.28-.44-.19-.8-.46-1.07-.8s-.46-.75-.58-1.22c-.12-.47-.18-.99-.18-1.56v-4.73h1.51v4.41c0,1.03,.16,1.76,.49,2.2,.32,.44,.87,.66,1.64,.66,.16,0,.33,0,.5-.02,.17-.01,.33-.02,.49-.04,.15-.02,.29-.03,.41-.05,.12-.02,.21-.04,.27-.06v-7.11h1.51v8.18Z"/><path class="d" d="M162.43,35.68c.13,0,.28,0,.45,.02,.17,.02,.33,.04,.49,.06,.16,.03,.31,.05,.45,.08,.13,.03,.23,.05,.3,.07l-.26,1.31c-.12-.04-.32-.09-.59-.15-.28-.06-.63-.09-1.06-.09-.28,0-.56,.03-.83,.09-.28,.06-.46,.1-.54,.12v7.08h-1.51v-8.07c.36-.13,.8-.25,1.33-.36,.53-.11,1.12-.17,1.78-.17Z"/><path class="d" d="M168.22,35.48c.6,0,1.12,.08,1.53,.23,.42,.16,.75,.38,1,.66s.43,.63,.54,1.02c.11,.39,.16,.83,.16,1.3v5.27c-.13,.02-.31,.05-.54,.09-.23,.04-.49,.07-.79,.11-.29,.03-.61,.06-.95,.09-.34,.03-.68,.04-1.01,.04-.48,0-.91-.05-1.31-.15-.4-.1-.75-.25-1.04-.46-.29-.21-.52-.49-.68-.83-.16-.35-.24-.76-.24-1.25s.09-.86,.28-1.2c.19-.34,.45-.61,.77-.81,.32-.21,.7-.36,1.13-.45,.43-.1,.89-.15,1.36-.15,.15,0,.31,0,.47,.02,.16,.02,.32,.04,.46,.06,.15,.03,.27,.05,.38,.07,.11,.02,.18,.04,.23,.05v-.42c0-.25-.03-.49-.08-.74-.05-.24-.15-.46-.29-.65-.14-.19-.33-.34-.57-.45-.24-.11-.56-.17-.95-.17-.5,0-.93,.04-1.3,.1-.37,.07-.65,.14-.83,.22l-.18-1.25c.19-.09,.52-.17,.97-.25,.45-.08,.94-.12,1.47-.12Zm.13,7.55c.36,0,.67,0,.95-.02,.28-.02,.5-.05,.69-.09v-2.51c-.11-.05-.28-.1-.53-.14-.24-.04-.54-.06-.88-.06-.23,0-.47,.02-.72,.05-.25,.03-.49,.1-.7,.2-.21,.1-.39,.24-.53,.42-.14,.18-.21,.41-.21,.71,0,.54,.17,.91,.52,1.13,.35,.21,.82,.32,1.41,.32Z"/><path class="d" d="M176.4,44.28c-.93-.02-1.59-.22-1.98-.6-.39-.38-.58-.97-.58-1.77v-10.11l1.51-.26v10.12c0,.25,.02,.45,.06,.62,.04,.16,.11,.29,.21,.39,.1,.1,.23,.17,.39,.22,.16,.05,.36,.09,.6,.12l-.21,1.26Z"/><path class="d" d="M21.21,55.33c.6,0,1.12,.08,1.53,.23,.42,.16,.75,.38,1,.66s.43,.63,.54,1.02c.11,.39,.16,.83,.16,1.3v5.27c-.13,.02-.31,.05-.54,.09-.23,.04-.49,.07-.79,.11-.29,.03-.61,.06-.95,.09-.34,.03-.68,.04-1.01,.04-.48,0-.91-.05-1.31-.15-.4-.1-.75-.25-1.04-.46-.29-.21-.52-.49-.68-.83-.16-.35-.24-.76-.24-1.25s.09-.86,.28-1.2c.19-.34,.45-.6,.77-.81,.32-.21,.7-.36,1.13-.45,.43-.1,.89-.15,1.36-.15,.15,0,.31,0,.47,.02,.16,.02,.32,.04,.46,.07,.15,.03,.27,.05,.38,.07,.11,.02,.18,.04,.23,.05v-.42c0-.25-.03-.49-.08-.74-.05-.24-.15-.46-.29-.65-.14-.19-.33-.34-.57-.45-.24-.11-.56-.17-.95-.17-.5,0-.93,.04-1.3,.1-.37,.07-.65,.14-.83,.22l-.18-1.25c.19-.09,.52-.17,.97-.25,.45-.08,.94-.12,1.47-.12Zm.13,7.55c.36,0,.67,0,.95-.02,.28-.02,.5-.05,.69-.09v-2.51c-.11-.05-.28-.1-.53-.14-.24-.04-.54-.06-.88-.06-.23,0-.47,.02-.72,.05-.25,.03-.49,.1-.7,.2-.21,.1-.39,.24-.53,.42-.14,.18-.21,.41-.21,.71,0,.54,.17,.91,.52,1.13,.35,.21,.82,.32,1.41,.32Z"/><path class="d" d="M26.86,55.95c.35-.09,.8-.18,1.38-.28,.57-.1,1.23-.15,1.98-.15,.67,0,1.23,.09,1.67,.28,.44,.19,.8,.45,1.06,.79,.26,.34,.45,.75,.56,1.22s.16,1,.16,1.57v4.73h-1.51v-4.41c0-.52-.04-.96-.1-1.33-.07-.37-.19-.66-.35-.89-.16-.23-.38-.39-.65-.49-.27-.1-.6-.15-1-.15-.16,0-.33,0-.5,.02-.17,.01-.34,.02-.49,.04-.16,.02-.3,.04-.42,.06-.12,.02-.21,.04-.27,.05v7.11h-1.51v-8.18Z"/><path class="d" d="M41.52,51.62l1.51-.26v12.33c-.35,.1-.79,.19-1.33,.29-.54,.1-1.16,.15-1.86,.15-.65,0-1.23-.1-1.75-.31-.52-.2-.96-.5-1.33-.88-.37-.38-.65-.84-.85-1.39-.2-.54-.3-1.16-.3-1.84s.08-1.24,.25-1.78c.17-.54,.41-1,.74-1.39,.32-.39,.72-.69,1.19-.91,.47-.22,1.01-.32,1.61-.32,.49,0,.91,.06,1.29,.19,.37,.13,.65,.25,.83,.37v-4.26Zm0,5.67c-.18-.15-.45-.3-.79-.44-.35-.14-.72-.21-1.13-.21-.43,0-.8,.08-1.11,.23-.31,.16-.56,.37-.75,.65-.19,.28-.33,.6-.42,.98-.09,.38-.13,.78-.13,1.22,0,.98,.24,1.74,.73,2.28,.49,.53,1.13,.8,1.94,.8,.41,0,.75-.02,1.03-.06,.28-.04,.49-.08,.64-.12v-5.33Z"/><path class="d" d="M49.29,52.9h1.57v11.23h-1.57v-11.23Z"/><path class="d" d="M53.47,55.95c.35-.09,.8-.18,1.38-.28,.57-.1,1.23-.15,1.98-.15,.67,0,1.23,.09,1.67,.28,.44,.19,.8,.45,1.06,.79,.26,.34,.45,.75,.56,1.22s.16,1,.16,1.57v4.73h-1.51v-4.41c0-.52-.04-.96-.11-1.33-.07-.37-.19-.66-.35-.89-.16-.23-.38-.39-.65-.49-.27-.1-.61-.15-1-.15-.16,0-.33,0-.5,.02-.17,.01-.34,.02-.49,.04-.16,.02-.3,.04-.42,.06-.12,.02-.21,.04-.27,.05v7.11h-1.51v-8.18Z"/><path class="d" d="M69.01,55.71c-.42,1.58-.92,3.09-1.48,4.54-.57,1.45-1.12,2.74-1.64,3.89h-1.36c-.53-1.14-1.08-2.44-1.64-3.89-.57-1.45-1.06-2.96-1.48-4.54h1.62c.13,.53,.28,1.09,.46,1.69,.18,.6,.37,1.19,.57,1.78,.2,.59,.4,1.16,.61,1.71,.2,.55,.4,1.04,.58,1.47,.18-.43,.38-.92,.58-1.47,.2-.55,.41-1.12,.61-1.71,.2-.59,.39-1.18,.57-1.78,.18-.6,.33-1.16,.46-1.69h1.56Z"/><path class="d" d="M69.79,59.74c0-.75,.11-1.4,.32-1.95,.22-.56,.5-1.02,.86-1.39,.36-.37,.77-.64,1.23-.83,.46-.18,.94-.28,1.43-.28,1.13,0,2,.35,2.61,1.06,.6,.71,.91,1.79,.91,3.23v.25c0,.1,0,.2-.02,.28h-5.77c.06,.88,.32,1.54,.76,1.99,.44,.45,1.13,.68,2.07,.68,.53,0,.97-.05,1.34-.14,.36-.09,.63-.18,.82-.27l.21,1.26c-.18,.1-.5,.2-.96,.31-.46,.11-.98,.16-1.56,.16-.73,0-1.37-.11-1.9-.33s-.97-.53-1.32-.92c-.35-.39-.6-.85-.77-1.38-.17-.53-.25-1.12-.25-1.76Zm5.78-.83c.01-.68-.16-1.24-.51-1.68-.35-.44-.83-.66-1.45-.66-.35,0-.65,.07-.92,.2-.26,.14-.49,.31-.67,.53-.18,.22-.33,.46-.43,.75-.1,.28-.17,.57-.2,.86h4.18Z"/><path class="d" d="M81.19,62.85c.62,0,1.07-.08,1.37-.24,.3-.16,.45-.42,.45-.78s-.15-.66-.44-.88c-.29-.22-.77-.46-1.44-.73-.32-.13-.63-.26-.93-.4-.3-.13-.55-.29-.77-.48-.22-.18-.39-.41-.52-.66-.13-.26-.19-.58-.19-.96,0-.75,.28-1.34,.83-1.77,.55-.44,1.3-.66,2.25-.66,.24,0,.48,.01,.71,.04,.24,.03,.46,.06,.66,.1,.2,.04,.39,.08,.54,.12,.16,.04,.28,.08,.36,.11l-.28,1.3c-.16-.09-.42-.18-.76-.27s-.76-.14-1.25-.14c-.42,0-.79,.08-1.1,.25-.31,.17-.47,.43-.47,.79,0,.18,.04,.35,.11,.49,.07,.14,.18,.27,.32,.38,.15,.11,.33,.22,.54,.32,.22,.1,.48,.2,.78,.31,.4,.15,.76,.3,1.07,.45,.31,.15,.58,.32,.8,.51,.22,.19,.39,.43,.51,.7,.12,.28,.18,.61,.18,1.01,0,.78-.29,1.37-.87,1.77-.58,.4-1.4,.6-2.47,.6-.75,0-1.33-.06-1.75-.19-.42-.12-.71-.22-.86-.28l.28-1.3c.17,.06,.45,.16,.83,.29,.38,.13,.88,.19,1.51,.19Z"/><path class="d" d="M87.79,55.51h3.19v1.26h-3.19v3.89c0,.42,.03,.77,.1,1.04,.06,.28,.16,.49,.29,.65,.13,.16,.29,.27,.49,.33,.19,.06,.42,.1,.68,.1,.45,0,.82-.05,1.09-.15,.28-.1,.47-.18,.58-.22l.29,1.25c-.15,.08-.42,.17-.79,.28-.38,.11-.81,.17-1.3,.17-.57,0-1.04-.07-1.42-.22-.37-.15-.67-.36-.9-.66-.23-.29-.39-.65-.48-1.08-.09-.43-.14-.92-.14-1.48v-7.52l1.51-.26v2.61Z"/><path class="d" d="M92.81,55.95c.35-.09,.8-.18,1.37-.28,.57-.1,1.22-.15,1.97-.15,.54,0,.99,.07,1.36,.22,.37,.15,.67,.36,.92,.64,.08-.05,.19-.13,.36-.23,.16-.1,.36-.19,.6-.28,.24-.09,.5-.17,.79-.24,.29-.07,.6-.1,.94-.1,.65,0,1.18,.09,1.59,.28,.41,.19,.73,.46,.96,.8,.23,.35,.39,.76,.47,1.23,.08,.48,.12,.99,.12,1.56v4.73h-1.51v-4.41c0-.5-.02-.92-.07-1.28-.05-.36-.14-.65-.28-.89-.14-.24-.32-.41-.55-.53-.23-.11-.53-.17-.9-.17-.51,0-.93,.07-1.26,.2-.33,.14-.55,.26-.67,.36,.09,.28,.15,.59,.19,.92,.04,.33,.06,.69,.06,1.05v4.73h-1.51v-4.41c0-.5-.03-.92-.08-1.28-.05-.36-.15-.65-.28-.89-.14-.24-.32-.41-.55-.53-.23-.11-.53-.17-.88-.17-.15,0-.31,0-.49,.02-.17,.01-.34,.02-.49,.04-.16,.02-.3,.04-.43,.06-.13,.02-.22,.04-.26,.05v7.11h-1.51v-8.18Z"/><path class="d" d="M106.21,59.74c0-.75,.11-1.4,.32-1.95,.22-.56,.5-1.02,.86-1.39,.36-.37,.77-.64,1.23-.83,.46-.18,.94-.28,1.43-.28,1.13,0,2,.35,2.61,1.06,.6,.71,.91,1.79,.91,3.23v.25c0,.1,0,.2-.02,.28h-5.77c.06,.88,.32,1.54,.76,1.99,.44,.45,1.13,.68,2.07,.68,.53,0,.97-.05,1.34-.14,.36-.09,.63-.18,.82-.27l.21,1.26c-.18,.1-.5,.2-.96,.31-.46,.11-.98,.16-1.56,.16-.73,0-1.37-.11-1.9-.33s-.97-.53-1.32-.92c-.35-.39-.6-.85-.77-1.38-.17-.53-.25-1.12-.25-1.76Zm5.78-.83c.01-.68-.16-1.24-.51-1.68-.35-.44-.83-.66-1.45-.66-.35,0-.65,.07-.92,.2-.26,.14-.49,.31-.67,.53-.18,.22-.33,.46-.43,.75-.1,.28-.17,.57-.2,.86h4.18Z"/><path class="d" d="M115.65,55.95c.35-.09,.8-.18,1.38-.28,.57-.1,1.23-.15,1.98-.15,.67,0,1.23,.09,1.67,.28,.44,.19,.8,.45,1.06,.79,.26,.34,.45,.75,.56,1.22s.16,1,.16,1.57v4.73h-1.51v-4.41c0-.52-.04-.96-.1-1.33-.07-.37-.19-.66-.35-.89-.16-.23-.38-.39-.65-.49-.27-.1-.6-.15-1-.15-.16,0-.33,0-.5,.02-.17,.01-.34,.02-.49,.04-.16,.02-.3,.04-.42,.06-.12,.02-.21,.04-.27,.05v7.11h-1.51v-8.18Z"/><path class="d" d="M126.28,55.51h3.19v1.26h-3.19v3.89c0,.42,.03,.77,.1,1.04,.06,.28,.16,.49,.29,.65,.13,.16,.29,.27,.49,.33,.19,.06,.42,.1,.68,.1,.45,0,.82-.05,1.09-.15,.28-.1,.47-.18,.58-.22l.29,1.25c-.15,.08-.42,.17-.79,.28-.38,.11-.81,.17-1.3,.17-.57,0-1.05-.07-1.42-.22-.37-.15-.67-.36-.9-.66-.23-.29-.39-.65-.48-1.08-.09-.43-.14-.92-.14-1.48v-7.52l1.51-.26v2.61Z"/><path class="d" d="M135.06,64.13v-11.23h6.77v1.34h-5.2v3.39h4.62v1.33h-4.62v5.17h-1.57Z"/><path class="d" d="M149.88,63.71c-.35,.09-.8,.18-1.37,.28-.57,.1-1.22,.15-1.97,.15-.65,0-1.19-.09-1.64-.28-.44-.19-.8-.46-1.07-.8s-.46-.75-.58-1.22c-.12-.47-.18-.99-.18-1.56v-4.73h1.51v4.41c0,1.03,.16,1.76,.49,2.2,.32,.44,.87,.66,1.64,.66,.16,0,.33,0,.5-.02,.17-.01,.33-.02,.49-.04,.15-.02,.29-.03,.41-.05,.12-.02,.21-.04,.27-.06v-7.11h1.51v8.18Z"/><path class="d" d="M152.39,55.95c.35-.09,.8-.18,1.38-.28s1.23-.15,1.98-.15c.67,0,1.23,.09,1.67,.28,.44,.19,.8,.45,1.06,.79,.26,.34,.45,.75,.56,1.22s.16,1,.16,1.57v4.73h-1.51v-4.41c0-.52-.04-.96-.1-1.33-.07-.37-.19-.66-.35-.89-.16-.23-.38-.39-.65-.49-.27-.1-.6-.15-1-.15-.16,0-.33,0-.5,.02-.17,.01-.34,.02-.49,.04-.16,.02-.3,.04-.42,.06-.12,.02-.21,.04-.27,.05v7.11h-1.51v-8.18Z"/><path class="d" d="M167.05,51.62l1.51-.26v12.33c-.35,.1-.79,.19-1.33,.29-.54,.1-1.16,.15-1.86,.15-.65,0-1.23-.1-1.75-.31-.52-.2-.96-.5-1.33-.88-.37-.38-.65-.84-.85-1.39-.2-.54-.3-1.16-.3-1.84s.08-1.24,.25-1.78c.17-.54,.41-1,.74-1.39,.32-.39,.72-.69,1.19-.91,.47-.22,1.01-.32,1.61-.32,.49,0,.91,.06,1.29,.19,.37,.13,.65,.25,.83,.37v-4.26Zm0,5.67c-.18-.15-.45-.3-.79-.44-.35-.14-.72-.21-1.13-.21-.43,0-.8,.08-1.11,.23-.31,.16-.56,.37-.75,.65-.19,.28-.33,.6-.42,.98-.09,.38-.13,.78-.13,1.22,0,.98,.24,1.74,.73,2.28,.49,.53,1.13,.8,1.94,.8,.41,0,.75-.02,1.03-.06,.28-.04,.49-.08,.64-.12v-5.33Z"/><path class="d" d="M173.03,62.85c.62,0,1.07-.08,1.37-.24,.3-.16,.45-.42,.45-.78s-.15-.66-.44-.88c-.29-.22-.77-.46-1.44-.73-.32-.13-.63-.26-.93-.4-.3-.13-.55-.29-.77-.48-.22-.18-.39-.41-.52-.66-.13-.26-.19-.58-.19-.96,0-.75,.28-1.34,.83-1.77,.55-.44,1.3-.66,2.25-.66,.24,0,.48,.01,.71,.04,.24,.03,.46,.06,.66,.1,.21,.04,.39,.08,.54,.12,.16,.04,.28,.08,.36,.11l-.28,1.3c-.16-.09-.42-.18-.76-.27s-.76-.14-1.25-.14c-.42,0-.79,.08-1.1,.25-.31,.17-.47,.43-.47,.79,0,.18,.04,.35,.11,.49,.07,.14,.18,.27,.32,.38,.15,.11,.33,.22,.54,.32,.22,.1,.48,.2,.78,.31,.4,.15,.76,.3,1.07,.45,.31,.15,.58,.32,.8,.51,.22,.19,.39,.43,.51,.7,.12,.28,.18,.61,.18,1.01,0,.78-.29,1.37-.87,1.77-.58,.4-1.4,.6-2.47,.6-.75,0-1.33-.06-1.75-.19-.42-.12-.71-.22-.86-.28l.28-1.3c.17,.06,.45,.16,.83,.29,.38,.13,.88,.19,1.51,.19Z"/></g><g><path class="d" d="M0,21.61V4.6H10.92v2.63H3.09v4.2h6.97v2.58H3.09v4.98H11.51v2.63H0Z"/><path class="d" d="M24.2,20.95c-.57,.15-1.32,.3-2.23,.45-.92,.16-1.92,.23-3.02,.23-1.03,0-1.89-.15-2.59-.44-.7-.29-1.25-.7-1.67-1.23-.42-.52-.72-1.15-.9-1.88s-.27-1.53-.27-2.39v-7.19h2.97v6.73c0,1.37,.2,2.36,.6,2.95,.4,.59,1.1,.88,2.1,.88,.36,0,.74-.02,1.14-.05,.4-.03,.7-.07,.9-.12V8.5h2.97v12.45Z"/><path class="d" d="M35.15,11.45c-.25-.08-.59-.17-1.02-.26-.43-.09-.94-.14-1.51-.14-.33,0-.68,.03-1.04,.1-.37,.07-.63,.12-.77,.17v10.29h-2.97V9.39c.57-.21,1.29-.41,2.15-.6,.86-.19,1.81-.28,2.86-.28,.2,0,.43,.01,.69,.04,.26,.02,.52,.06,.79,.1,.26,.04,.52,.09,.76,.15s.44,.11,.59,.16l-.52,2.5Z"/><path class="d" d="M49.19,14.86c0,1.01-.15,1.94-.44,2.77-.29,.83-.71,1.55-1.25,2.14-.54,.59-1.19,1.05-1.95,1.38-.76,.33-1.6,.49-2.52,.49s-1.75-.16-2.5-.49c-.75-.33-1.4-.79-1.94-1.38-.54-.59-.96-1.3-1.26-2.14-.3-.84-.45-1.76-.45-2.77s.15-1.94,.45-2.76c.3-.83,.73-1.53,1.28-2.12,.55-.59,1.2-1.04,1.95-1.36,.75-.32,1.58-.48,2.48-.48s1.73,.16,2.49,.48c.76,.32,1.41,.77,1.95,1.36,.54,.59,.96,1.3,1.26,2.12,.3,.83,.45,1.75,.45,2.76Zm-3.04,0c0-1.28-.27-2.29-.82-3.03-.55-.74-1.31-1.12-2.3-1.12s-1.75,.37-2.3,1.12c-.55,.74-.82,1.75-.82,3.03s.27,2.32,.82,3.07c.55,.75,1.31,1.13,2.3,1.13s1.75-.38,2.3-1.13c.55-.75,.82-1.78,.82-3.07Z"/><path class="d" d="M63.68,15.2c0,.98-.13,1.88-.38,2.7-.25,.82-.62,1.52-1.09,2.11-.48,.59-1.07,1.05-1.78,1.38-.71,.33-1.52,.49-2.42,.49-.61,0-1.16-.07-1.67-.22-.51-.15-.92-.31-1.25-.49v4.98h-2.97V9.19c.61-.16,1.35-.32,2.23-.47,.88-.15,1.82-.22,2.8-.22s1.92,.16,2.73,.47c.8,.31,1.48,.76,2.05,1.34,.56,.58,1,1.28,1.3,2.11,.3,.83,.45,1.76,.45,2.79Zm-3.04,.05c0-1.33-.3-2.36-.9-3.09-.6-.74-1.56-1.1-2.88-1.1-.28,0-.57,.01-.87,.04-.3,.02-.6,.08-.9,.16v7.34c.26,.18,.61,.35,1.04,.5,.43,.16,.9,.23,1.39,.23,1.08,0,1.87-.37,2.37-1.1,.5-.74,.75-1.73,.75-2.97Z"/><path class="d" d="M65.89,14.96c0-1.13,.17-2.12,.5-2.97,.33-.85,.78-1.56,1.34-2.12,.56-.56,1.19-.99,1.91-1.28,.72-.29,1.46-.43,2.21-.43,1.77,0,3.15,.55,4.14,1.64,.99,1.1,1.49,2.73,1.49,4.91,0,.16,0,.35-.01,.55,0,.21-.02,.39-.04,.55h-8.47c.08,1.03,.45,1.83,1.09,2.39,.65,.56,1.58,.85,2.81,.85,.72,0,1.38-.06,1.98-.2,.6-.13,1.07-.27,1.41-.42l.39,2.43c-.16,.08-.39,.17-.67,.26-.29,.09-.61,.17-.98,.25-.37,.07-.77,.14-1.19,.18-.43,.05-.86,.07-1.3,.07-1.13,0-2.11-.17-2.95-.5-.83-.34-1.52-.8-2.06-1.4-.54-.6-.94-1.3-1.2-2.11-.26-.81-.39-1.7-.39-2.66Zm8.62-1.33c0-.41-.06-.8-.17-1.17-.11-.37-.28-.69-.5-.96-.22-.27-.49-.48-.81-.64-.32-.16-.7-.23-1.14-.23s-.86,.09-1.2,.26c-.34,.17-.63,.4-.87,.68-.24,.28-.42,.6-.55,.96-.13,.36-.22,.73-.27,1.1h5.52Z"/><path class="d" d="M84.74,8.21c.98,0,1.81,.12,2.48,.37,.67,.25,1.21,.59,1.61,1.03,.4,.44,.69,.98,.86,1.61,.17,.63,.26,1.32,.26,2.07v7.78c-.46,.1-1.15,.22-2.07,.36-.92,.14-1.97,.21-3.13,.21-.77,0-1.47-.07-2.11-.22-.64-.15-1.18-.38-1.63-.71-.45-.33-.8-.75-1.06-1.28-.25-.52-.38-1.17-.38-1.94s.14-1.36,.43-1.87c.29-.51,.67-.92,1.17-1.24,.49-.32,1.06-.55,1.71-.69,.65-.14,1.32-.21,2.03-.21,.33,0,.67,.02,1.03,.06,.36,.04,.74,.11,1.15,.21v-.49c0-.34-.04-.67-.12-.98-.08-.31-.23-.58-.43-.82-.21-.24-.48-.42-.81-.55-.34-.13-.76-.2-1.26-.2-.69,0-1.32,.05-1.89,.15-.57,.1-1.04,.21-1.4,.34l-.37-2.41c.38-.13,.92-.26,1.64-.39,.72-.13,1.49-.2,2.31-.2Zm.25,11.07c.92,0,1.61-.05,2.09-.15v-3.29c-.16-.05-.4-.1-.71-.15-.31-.05-.65-.07-1.03-.07-.33,0-.66,.02-.99,.07-.34,.05-.64,.14-.91,.27-.27,.13-.49,.32-.65,.55-.16,.24-.25,.54-.25,.9,0,.7,.22,1.19,.66,1.46,.44,.27,1.04,.41,1.79,.41Z"/><path class="d" d="M93.43,9.19c.57-.16,1.32-.32,2.23-.47,.92-.15,1.93-.22,3.04-.22,1.05,0,1.92,.14,2.63,.43,.7,.29,1.26,.69,1.68,1.2,.42,.52,.71,1.14,.88,1.87,.17,.73,.26,1.53,.26,2.39v7.22h-2.97v-6.75c0-.69-.05-1.27-.14-1.76-.09-.48-.24-.88-.44-1.18-.2-.3-.48-.52-.83-.66-.35-.14-.78-.21-1.29-.21-.38,0-.77,.02-1.18,.07-.41,.05-.71,.09-.91,.12v10.36h-2.97V9.19Z"/><path class="d" d="M119.92,21.63c-1.16,0-2.16-.17-2.99-.5-.84-.34-1.53-.81-2.07-1.41s-.95-1.32-1.21-2.14c-.26-.82-.39-1.72-.39-2.7V4.25h3.12V14.59c0,.77,.09,1.43,.26,1.98,.17,.55,.42,.99,.74,1.34,.32,.34,.7,.6,1.13,.76,.43,.16,.92,.25,1.46,.25s1.03-.08,1.47-.25c.44-.16,.82-.42,1.14-.76,.32-.34,.56-.79,.74-1.34,.17-.55,.26-1.21,.26-1.98V4.25h3.12V14.88c0,.98-.13,1.88-.4,2.7-.27,.82-.68,1.53-1.23,2.14s-1.25,1.08-2.1,1.41c-.85,.34-1.86,.5-3.02,.5Z"/><path class="d" d="M130.32,9.19c.57-.16,1.32-.32,2.23-.47,.92-.15,1.93-.22,3.04-.22,1.05,0,1.92,.14,2.63,.43,.7,.29,1.26,.69,1.68,1.2,.42,.52,.71,1.14,.88,1.87,.17,.73,.26,1.53,.26,2.39v7.22h-2.97v-6.75c0-.69-.05-1.27-.14-1.76-.09-.48-.24-.88-.44-1.18-.2-.3-.48-.52-.83-.66-.35-.14-.78-.21-1.29-.21-.38,0-.77,.02-1.18,.07-.41,.05-.71,.09-.91,.12v10.36h-2.97V9.19Z"/><path class="d" d="M147.85,5.02c0,.56-.18,1-.54,1.33-.36,.33-.79,.49-1.28,.49s-.94-.16-1.3-.49c-.36-.33-.54-.77-.54-1.33s.18-1.02,.54-1.35c.36-.33,.79-.49,1.3-.49s.92,.16,1.28,.49c.36,.33,.54,.78,.54,1.35Zm-.32,16.59h-2.97V8.77h2.97v12.84Z"/><path class="d" d="M162.78,14.86c0,1.01-.15,1.94-.44,2.77-.29,.83-.71,1.55-1.25,2.14-.54,.59-1.19,1.05-1.95,1.38-.76,.33-1.6,.49-2.52,.49s-1.75-.16-2.5-.49c-.75-.33-1.4-.79-1.94-1.38-.54-.59-.96-1.3-1.26-2.14-.3-.84-.45-1.76-.45-2.77s.15-1.94,.45-2.76c.3-.83,.73-1.53,1.28-2.12,.55-.59,1.2-1.04,1.95-1.36,.75-.32,1.58-.48,2.48-.48s1.73,.16,2.49,.48c.76,.32,1.41,.77,1.95,1.36,.54,.59,.96,1.3,1.26,2.12,.3,.83,.45,1.75,.45,2.76Zm-3.04,0c0-1.28-.27-2.29-.82-3.03-.55-.74-1.31-1.12-2.3-1.12s-1.75,.37-2.3,1.12c-.55,.74-.82,1.75-.82,3.03s.27,2.32,.82,3.07c.55,.75,1.31,1.13,2.3,1.13s1.75-.38,2.3-1.13c.55-.75,.82-1.78,.82-3.07Z"/><path class="d" d="M165.7,9.19c.57-.16,1.32-.32,2.23-.47,.92-.15,1.93-.22,3.04-.22,1.05,0,1.92,.14,2.63,.43,.7,.29,1.26,.69,1.68,1.2,.42,.52,.71,1.14,.88,1.87s.26,1.53,.26,2.39v7.22h-2.97v-6.75c0-.69-.05-1.27-.14-1.76-.09-.48-.24-.88-.44-1.18-.2-.3-.48-.52-.83-.66-.35-.14-.78-.21-1.29-.21-.38,0-.77,.02-1.18,.07-.41,.05-.71,.09-.91,.12v10.36h-2.97V9.19Z"/></g></svg>