<?xml version="1.0" encoding="UTF-8"?><svg id="a" xmlns="http://www.w3.org/2000/svg" viewBox="0 0 340.27 99.23"><defs><style>.b{fill:#fff;}.c{fill:#b72232;}.d{fill:#231f20;}</style></defs><rect class="b" width="149.13" height="49.52"/><rect class="c" y="49.52" width="149.13" height="49.71"/><g><path class="d" d="M311.8,39.87c.39,1.24,.98,2.3,1.78,3.19,.79,.89,1.79,1.59,3.01,2.09,1.21,.5,2.63,.75,4.27,.75,1.05,0,2.07-.1,3.06-.29,.99-.2,1.73-.42,2.22-.66l-.62-3.66c-.54,.22-1.17,.4-1.91,.55-.73,.15-1.48,.22-2.24,.22-2.03,0-3.47-.55-4.32-1.67-.86-1.11-1.29-2.62-1.29-4.53s.45-3.51,1.36-4.6c.91-1.09,2.23-1.63,3.96-1.63,.73,0,1.42,.07,2.07,.22,.65,.15,1.23,.33,1.74,.55l.95-3.63c-1.61-.66-3.32-.99-5.13-.99-1.46,0-2.79,.26-3.96,.77-1.17,.51-2.17,1.22-2.99,2.12-.82,.91-1.45,1.98-1.89,3.21-.44,1.24-.66,2.56-.66,3.98s.2,2.78,.59,4.01m-5.5-21.24c-.54-.49-1.17-.73-1.91-.73s-1.4,.25-1.94,.73c-.54,.49-.8,1.16-.8,2.01s.27,1.49,.8,1.98c.54,.49,1.19,.73,1.94,.73s1.37-.24,1.91-.73c.54-.49,.81-1.15,.81-1.98s-.27-1.53-.81-2.01m.33,7.62h-4.44v19.17h4.44V26.26Zm-8.07,15.87c-.58-.07-1.07-.18-1.45-.31-.38-.13-.68-.33-.9-.59-.22-.26-.37-.57-.46-.94-.09-.37-.13-.82-.13-1.35V16.98l-4.44,.74v22.07c0,.95,.1,1.8,.31,2.55,.21,.75,.57,1.37,1.08,1.87,.51,.5,1.2,.89,2.07,1.15,.87,.27,1.96,.42,3.28,.44l.62-3.67Zm-12.44-10.36c-.38-1.23-.92-2.29-1.63-3.17s-1.6-1.56-2.66-2.03c-1.06-.48-2.27-.71-3.61-.71-.9,0-1.73,.11-2.47,.33-.75,.22-1.37,.46-1.89,.73v-9.94l-4.44,.74v27.13c.88,.27,1.99,.51,3.32,.73,1.33,.22,2.73,.33,4.2,.33s2.87-.23,4.07-.7c1.2-.46,2.22-1.14,3.06-2.02,.84-.88,1.49-1.94,1.94-3.17s.68-2.62,.68-4.16-.19-2.85-.57-4.09m-5.37,8.61c-.93,1.11-2.21,1.67-3.85,1.67-.71,0-1.31-.03-1.81-.09-.5-.06-.91-.13-1.23-.2v-11.04c.39-.27,.91-.51,1.56-.73,.65-.22,1.34-.33,2.07-.33,1.61,0,2.79,.55,3.54,1.65,.74,1.1,1.12,2.59,1.12,4.47s-.46,3.49-1.39,4.6m-16.97-14.13h-4.44v15.51c-.29,.07-.74,.13-1.34,.18-.6,.05-1.17,.07-1.7,.07-1.49,0-2.54-.44-3.13-1.32-.6-.88-.9-2.35-.9-4.4v-10.04h-4.44v10.74c0,1.29,.13,2.49,.4,3.57,.27,1.09,.72,2.02,1.34,2.8,.62,.78,1.45,1.39,2.49,1.83,1.04,.44,2.33,.66,3.87,.66,1.64,0,3.14-.12,4.51-.35,1.37-.23,2.48-.46,3.34-.68V26.26Zm-20.99,5.44c-.45-1.23-1.1-2.29-1.95-3.15-.84-.87-1.86-1.53-3.06-2-1.2-.46-2.55-.7-4.07-.7s-2.86,.11-4.18,.33c-1.32,.22-2.43,.45-3.33,.69v25.33h4.43v-7.44c.49,.27,1.11,.51,1.87,.73,.76,.22,1.59,.33,2.49,.33,1.34,0,2.55-.25,3.61-.73s1.95-1.17,2.66-2.05c.71-.88,1.25-1.93,1.63-3.15,.38-1.22,.57-2.57,.57-4.03,0-1.54-.22-2.93-.68-4.16m-4.99,8.67c-.75,1.1-1.93,1.65-3.54,1.65-.73,0-1.42-.12-2.07-.35-.65-.23-1.17-.48-1.56-.75v-10.96c.44-.12,.89-.2,1.34-.24,.45-.04,.88-.06,1.3-.06,1.98,0,3.42,.55,4.31,1.65,.89,1.1,1.34,2.64,1.34,4.62,0,1.86-.37,3.34-1.12,4.44m-28.98-6.42c.07-.56,.21-1.11,.4-1.65,.2-.54,.47-1.01,.82-1.43,.36-.41,.79-.75,1.3-1.01,.51-.26,1.11-.38,1.8-.38s1.23,.12,1.7,.35c.48,.23,.88,.55,1.21,.95,.33,.4,.58,.88,.75,1.43,.17,.55,.26,1.13,.26,1.74h-8.25Zm-4.03,5.96c.39,1.21,.99,2.26,1.8,3.15,.81,.89,1.83,1.59,3.08,2.09,1.25,.5,2.71,.75,4.4,.75,.66,0,1.31-.04,1.94-.11,.64-.07,1.23-.16,1.78-.28,.55-.11,1.04-.23,1.47-.37,.43-.13,.76-.26,1.01-.39l-.59-3.63c-.51,.22-1.21,.43-2.11,.62-.89,.2-1.87,.29-2.95,.29-1.83,0-3.23-.42-4.2-1.26-.96-.84-1.51-2.04-1.63-3.58h12.65c.02-.24,.04-.52,.05-.82,.01-.3,.02-.58,.02-.83,0-3.25-.74-5.69-2.22-7.33-1.48-1.64-3.54-2.46-6.17-2.46-1.12,0-2.22,.21-3.3,.64-1.08,.43-2.03,1.06-2.86,1.91-.83,.84-1.5,1.9-2,3.17-.5,1.27-.75,2.75-.75,4.44,0,1.44,.2,2.77,.59,3.98m-12.94-15.95c.76,.13,1.41,.36,1.96,.68,.55,.32,.97,.75,1.27,1.28,.29,.54,.44,1.2,.44,1.98,0,.83-.15,1.52-.44,2.05-.29,.54-.73,.97-1.3,1.28-.58,.32-1.29,.54-2.14,.66-.86,.12-1.85,.18-2.97,.18h-2.02v-8.21c.83-.07,1.74-.11,2.71-.11,.9,0,1.73,.07,2.49,.2m-6.23-4.07c-1.27,.09-2.47,.25-3.59,.49v25.04h4.62v-9.6h2.93c.24,0,.54-.01,.88-.04,.46,.59,.96,1.25,1.5,2,.54,.75,1.08,1.54,1.63,2.38,.55,.84,1.09,1.71,1.63,2.6,.54,.89,1.04,1.78,1.5,2.66h5.17c-.44-.95-.94-1.92-1.5-2.91-.56-.99-1.15-1.95-1.76-2.9-.61-.94-1.21-1.81-1.8-2.62-.59-.81-1.11-1.49-1.57-2.05,3.39-1.22,5.09-3.56,5.09-7,0-2.76-.97-4.82-2.91-6.16-1.94-1.34-4.75-2.01-8.41-2.01-1,0-2.14,.04-3.41,.13"/><path class="d" d="M340.27,53.29l-4.44,.73v9.2c-.51-.27-1.12-.51-1.83-.73-.71-.22-1.53-.33-2.46-.33-1.37,0-2.58,.24-3.63,.71-1.05,.48-1.94,1.16-2.68,2.04-.73,.88-1.29,1.94-1.67,3.17s-.57,2.61-.57,4.12,.22,2.93,.68,4.16c.45,1.23,1.1,2.29,1.94,3.15,.84,.87,1.86,1.54,3.06,2,1.2,.46,2.55,.7,4.07,.7s2.87-.11,4.2-.33c1.33-.22,2.44-.46,3.32-.74v-27.86Zm-11.61,14.34c.75-1.1,1.93-1.65,3.54-1.65,.73,0,1.42,.12,2.07,.35,.65,.23,1.17,.48,1.56,.75v11c-.32,.07-.73,.14-1.23,.2-.5,.06-1.11,.09-1.81,.09-1.64,0-2.92-.55-3.85-1.67-.93-1.11-1.39-2.64-1.39-4.6s.37-3.37,1.12-4.47m-26.04,14.11h4.44v-15.47c.29-.05,.75-.11,1.36-.18,.61-.07,1.2-.11,1.76-.11,.76,0,1.4,.11,1.93,.31,.53,.21,.94,.54,1.25,.99,.3,.45,.53,1.04,.66,1.76,.13,.72,.2,1.59,.2,2.62v10.08h4.44v-10.78c0-1.29-.13-2.49-.39-3.57-.26-1.09-.69-2.02-1.32-2.79-.62-.77-1.46-1.37-2.51-1.8-1.05-.43-2.36-.64-3.92-.64-1.66,0-3.18,.11-4.55,.33-1.37,.22-2.48,.45-3.34,.7v18.55Zm-16.64-19.36c-1.08,.2-1.89,.39-2.45,.59l.55,3.59c.54-.2,1.23-.37,2.09-.52,.85-.14,1.79-.22,2.82-.22,.76,0,1.39,.1,1.89,.29,.5,.2,.9,.47,1.21,.82,.3,.35,.52,.76,.64,1.23,.12,.46,.18,.95,.18,1.46v.73c-.61-.15-1.19-.25-1.72-.31-.54-.06-1.05-.09-1.54-.09-1.05,0-2.06,.11-3.02,.31-.97,.21-1.82,.55-2.55,1.03-.73,.47-1.31,1.09-1.74,1.85-.43,.76-.64,1.69-.64,2.79s.19,2.11,.57,2.89c.38,.78,.9,1.42,1.58,1.91,.67,.49,1.48,.84,2.44,1.06,.95,.22,2,.33,3.15,.33,1.73,0,3.29-.11,4.67-.31,1.38-.21,2.42-.39,3.1-.53v-11.62c0-1.12-.13-2.16-.39-3.1-.26-.94-.68-1.74-1.28-2.4-.6-.66-1.4-1.17-2.4-1.54-1-.37-2.23-.55-3.7-.55-1.22,0-2.37,.1-3.45,.29m1.14,15.63c-.66-.4-.99-1.13-.99-2.18,0-.54,.12-.98,.37-1.34,.24-.35,.57-.63,.97-.82,.41-.2,.86-.33,1.36-.4,.5-.07,.99-.11,1.48-.11,.56,0,1.07,.04,1.54,.11,.46,.07,.82,.15,1.06,.22v4.91c-.71,.15-1.75,.22-3.12,.22-1.12,0-2.02-.2-2.68-.61m-7.66,.42c-.59-.07-1.07-.18-1.45-.31-.38-.13-.68-.33-.9-.58-.22-.26-.37-.57-.46-.94-.09-.37-.13-.82-.13-1.36v-21.96l-4.44,.73v22.07c0,.95,.1,1.8,.31,2.55,.21,.75,.57,1.37,1.08,1.87,.51,.5,1.2,.89,2.07,1.15,.87,.27,1.96,.41,3.28,.44l.62-3.66Zm-17.65-1.72c-.82,1.12-1.96,1.69-3.43,1.69s-2.61-.56-3.43-1.69c-.82-1.12-1.23-2.65-1.23-4.58s.41-3.41,1.23-4.53c.82-1.11,1.96-1.67,3.43-1.67s2.61,.56,3.43,1.67c.82,1.11,1.23,2.62,1.23,4.53s-.41,3.46-1.23,4.58m5.09-8.71c-.45-1.23-1.08-2.29-1.89-3.17-.81-.88-1.78-1.56-2.92-2.03-1.13-.48-2.37-.71-3.72-.71s-2.58,.24-3.7,.71c-1.12,.48-2.1,1.15-2.91,2.03-.82,.88-1.45,1.94-1.91,3.17-.45,1.23-.68,2.61-.68,4.12s.22,2.9,.68,4.14c.45,1.25,1.08,2.31,1.89,3.19,.8,.88,1.77,1.56,2.89,2.05,1.12,.49,2.37,.73,3.74,.73s2.62-.24,3.76-.73c1.13-.49,2.11-1.17,2.91-2.05,.81-.88,1.43-1.95,1.87-3.19,.44-1.25,.66-2.62,.66-4.14s-.23-2.89-.68-4.12m-28.63-7.73c.77,.13,1.44,.36,2,.68s1,.76,1.32,1.32c.32,.56,.48,1.26,.48,2.09,0,1.73-.6,2.91-1.8,3.54-1.2,.62-2.91,.94-5.13,.94h-2.24v-8.65c.76-.07,1.72-.11,2.9-.11,.88,0,1.7,.07,2.47,.2m-6.41-4.07c-1.31,.09-2.5,.25-3.57,.49v25.04h4.62v-8.95h2.31c1.86,0,3.51-.16,4.95-.48,1.44-.32,2.66-.81,3.67-1.48,1-.67,1.77-1.54,2.29-2.6,.53-1.06,.79-2.34,.79-3.83,0-2.86-.98-4.96-2.95-6.31-1.97-1.34-4.8-2.02-8.49-2.02-1.1,0-2.3,.04-3.61,.13m-25.06-.81c-1.3,1.4-1.94,3.34-1.94,5.81v20.53h4.44v-15.47h6.96v-3.7h-6.96v-1.28c0-.61,.06-1.18,.18-1.71,.12-.52,.33-.97,.62-1.34,.29-.37,.69-.65,1.17-.86s1.09-.31,1.79-.31c.63,0,1.23,.06,1.78,.18,.55,.12,1.03,.28,1.45,.48l.84-3.67c-.39-.15-.98-.31-1.76-.5-.78-.18-1.68-.28-2.71-.28-2.61,0-4.57,.7-5.86,2.11m-12.3,21.32c-.82,1.12-1.96,1.69-3.43,1.69s-2.61-.56-3.43-1.69c-.82-1.12-1.23-2.65-1.23-4.58s.41-3.41,1.23-4.53c.82-1.11,1.96-1.67,3.43-1.67s2.61,.56,3.43,1.67c.82,1.11,1.23,2.62,1.23,4.53s-.41,3.46-1.23,4.58m5.1-8.71c-.45-1.23-1.08-2.29-1.89-3.17-.81-.88-1.78-1.56-2.91-2.03-1.14-.48-2.38-.71-3.72-.71s-2.58,.24-3.7,.71c-1.13,.48-2.1,1.15-2.92,2.03-.82,.88-1.45,1.94-1.91,3.17-.45,1.23-.68,2.61-.68,4.12s.23,2.9,.68,4.14,1.08,2.31,1.89,3.19c.81,.88,1.77,1.56,2.9,2.05,1.12,.49,2.37,.73,3.74,.73s2.62-.24,3.76-.73c1.14-.49,2.11-1.17,2.91-2.05,.81-.88,1.43-1.95,1.87-3.19,.44-1.25,.66-2.62,.66-4.14s-.23-2.89-.68-4.12"/></g></svg>