<?xml version="1.0" encoding="utf-8"?>
<!-- Generator: Adobe Illustrator 18.0.0, SVG Export Plug-In . SVG Version: 6.00 Build 0)  -->
<svg version="1.2" baseProfile="tiny" id="Layer_1" xmlns="http://www.w3.org/2000/svg" xmlns:xlink="http://www.w3.org/1999/xlink"
	 x="0px" y="0px" viewBox="240.3 277.5 300.8 38" xml:space="preserve">
<g>
	<path fill="#FFFFFF" d="M411.9,304.5c-1.4,0-2.4,0-3.1,0c-0.1-0.1-0.1-0.2-0.1-0.4c0-0.2,0-0.4,0.1-0.5c0.9,0,1.5-0.1,1.7-0.4
		c0.2-0.2,0.4-0.9,0.4-1.7v-9.7c0-1-0.1-1.6-0.4-1.7c-0.2-0.2-0.9-0.4-1.7-0.4c-0.1-0.1-0.1-0.2-0.1-0.4c0-0.1,0-0.4,0.1-0.5
		c1.6,0,2.6,0,3.1,0c0.5,0,1.6,0,3.2,0c0,0.1,0.1,0.2,0.1,0.5c0,0.2,0,0.4-0.1,0.4c-0.9,0-1.5,0.1-1.7,0.4c-0.2,0.2-0.4,0.9-0.4,1.9
		v10.6c0,0.4,0.1,0.6,0.2,0.9c0.2,0.2,0.5,0.4,0.9,0.4h1.7c1.2,0,2.1-0.2,2.6-0.9c0.6-0.5,1-1.4,1.2-2.4c0.2,0,0.5,0,0.7,0.1
		c-0.1,1.4-0.4,2.7-0.6,4c-1.5,0-2.5,0-2.9,0h-5.1V304.5z"/>
	<path fill="#FFFFFF" d="M426.6,291.8v6.2c0,0.6,0,1.2,0,1.6c0,0.5,0.1,1,0.4,1.5c0.2,0.6,0.5,1,0.9,1.4c0.9,0.7,1.7,1.2,2.9,1.2
		c0.7,0,1.5-0.1,2-0.4c0.6-0.2,1-0.6,1.4-0.9c0.2-0.4,0.5-0.9,0.7-1.4c0.1-0.6,0.2-1.1,0.4-1.6c0-0.5,0-1,0-1.7v-6
		c0-0.5,0-0.9-0.1-1.1c0-0.2-0.1-0.5-0.4-0.6c-0.2-0.1-0.4-0.2-0.6-0.2c-0.2,0-0.6-0.1-1.1-0.1c-0.1-0.1-0.1-0.2-0.1-0.4
		c0-0.1,0-0.4,0.1-0.5c1.6,0,2.6,0,2.9,0c0.1,0,0.9,0,2.5,0c0.1,0.1,0.1,0.2,0.1,0.5c0,0.2,0,0.4-0.1,0.4c-0.6,0.1-1,0.1-1.2,0.2
		c-0.2,0.1-0.4,0.2-0.5,0.5c-0.1,0.2-0.2,0.7-0.2,1.5v5.5c0,1.1-0.1,2.1-0.2,3s-0.5,1.6-1,2.4c-0.5,0.7-1.1,1.2-1.9,1.6
		c-0.9,0.4-1.9,0.5-3.1,0.5c-0.6,0-1.2-0.1-1.9-0.2c-0.6-0.1-1.2-0.5-1.9-0.9c-0.6-0.4-1.1-1-1.5-1.9c-0.4-0.9-0.6-1.9-0.6-3v-7
		c0-1-0.1-1.5-0.4-1.7c-0.2-0.2-0.7-0.4-1.5-0.4c-0.1-0.1-0.1-0.2-0.1-0.4s0-0.4,0.1-0.5c1.6,0,2.6,0,2.9,0c0.6,0,1.7,0,3.4,0
		c0,0.1,0.1,0.2,0.1,0.5s0,0.4-0.1,0.4c-1,0-1.6,0.1-1.9,0.4C426.7,290.2,426.6,290.8,426.6,291.8z"/>
	<path fill="#FFFFFF" d="M449.4,289.2c0.2,1.1,0.4,2.1,0.5,3.1c-0.1,0.1-0.4,0.1-0.7,0.1c-0.1-0.2-0.1-0.5-0.2-0.6
		c-0.1-0.2-0.1-0.4-0.2-0.6c-0.1-0.2-0.2-0.4-0.4-0.6c-0.1-0.1-0.2-0.4-0.5-0.5c-0.1-0.1-0.4-0.2-0.6-0.4c-0.2-0.1-0.5-0.1-0.7-0.2
		c-0.2,0-0.6-0.1-0.9-0.1c-0.7,0-1.4,0.2-1.9,0.9c-0.5,0.6-0.7,1.2-0.7,1.9c0,0.4,0.1,0.7,0.2,1.1s0.4,0.6,0.6,0.9
		c0.2,0.2,0.5,0.5,0.9,0.6c0.4,0.2,0.7,0.4,1,0.5c0.2,0.1,0.6,0.2,1,0.4c0.4,0.1,0.6,0.2,0.7,0.2c0.5,0.2,0.9,0.4,1.2,0.6
		c0.4,0.2,0.7,0.5,1.1,0.9c0.4,0.4,0.6,0.7,0.7,1.2s0.2,1,0.2,1.5c0,0.7-0.2,1.5-0.6,2.2c-0.4,0.7-1,1.2-1.6,1.7
		c-0.9,0.5-1.9,0.7-3,0.7c-0.7,0-1.6-0.1-2.5-0.2c-0.9-0.2-1.6-0.2-2-0.2c-0.2-1-0.4-2.2-0.5-3.7c0.2-0.1,0.5-0.1,0.7-0.1
		c0.5,2.2,2,3.5,4.5,3.5c1,0,1.7-0.2,2.2-0.7s0.7-1.2,0.7-2.2c0-0.5-0.1-0.9-0.2-1.2c-0.1-0.4-0.2-0.6-0.5-0.9
		c-0.1-0.2-0.4-0.5-0.7-0.6c-0.4-0.2-0.6-0.4-0.9-0.5c-0.2-0.1-0.5-0.2-0.9-0.4c-0.4-0.1-0.6-0.2-0.9-0.4c-0.7-0.2-1.4-0.6-1.9-1
		c-0.5-0.4-0.9-0.7-1.2-1.4s-0.5-1.2-0.5-1.9c0-1.2,0.5-2.2,1.4-3.1c1-0.7,2.1-1.2,3.4-1.2c0.9,0,1.7,0.1,2.4,0.4
		C448.8,289,449.2,289.1,449.4,289.2z"/>
	<path fill="#FFFFFF" d="M469,296.4c0,2-0.5,3.7-1.5,5.2c-0.6,1-1.5,1.7-2.6,2.2s-2.2,0.7-3.6,0.7c-2.1,0-4-0.7-5.5-2.1
		c-1.5-1.5-2.2-3.4-2.2-5.7c0-2.1,0.5-4,1.6-5.5c0.6-1,1.5-1.6,2.5-2.2c1-0.5,2.1-0.7,3.2-0.7c2.2,0,4.1,0.7,5.6,2.1
		C468.2,292.1,469,294.1,469,296.4z M460.7,289.3c-0.6,0-1.1,0.1-1.7,0.4c-0.5,0.2-1.1,0.7-1.5,1.2c-0.5,0.5-0.9,1.2-1.1,2.2
		s-0.5,2-0.5,3.2c0,2.2,0.6,4,1.7,5.3c1.1,1.4,2.5,2,4.1,2c1.4,0,2.6-0.6,3.5-1.9c0.9-1.2,1.4-3,1.4-5.1c0-2.4-0.5-4.2-1.6-5.6
		C463.9,290,462.4,289.3,460.7,289.3z M462.1,284.5c0.7,0.4,1.2,0.7,1.5,1.2l-3.5,1.5c-0.5,0.2-0.7,0.2-1,0.2
		c-0.2,0-0.4-0.1-0.4-0.4c0-0.1,0.1-0.4,0.4-0.5L462.1,284.5z"/>
	<path fill="#FFFFFF" d="M477.7,296.7h-2.2v4.8c0,1,0.1,1.6,0.4,1.7c0.2,0.2,0.9,0.4,1.7,0.4c0.1,0.1,0.1,0.2,0.1,0.5
		c0,0.2,0,0.4-0.1,0.4c-1.6,0-2.7,0-3.1,0c-0.5,0-1.6,0-3.1,0c-0.1-0.1-0.1-0.2-0.1-0.4c0-0.2,0-0.4,0.1-0.5c0.9,0,1.5-0.1,1.7-0.4
		c0.2-0.2,0.4-0.9,0.4-1.7v-9.7c0-1-0.1-1.6-0.4-1.7c-0.2-0.2-0.9-0.4-1.7-0.4c-0.1-0.1-0.1-0.2-0.1-0.4c0-0.2,0-0.4,0.1-0.5h3.1
		h6.2c0.4,0,0.9,0,1.1-0.1c0,0,0.1,0,0.1,0.1c0.1,1,0.4,2.1,0.5,3.5c-0.2,0.1-0.5,0.1-0.7,0.1c-0.2-0.6-0.4-1.1-0.6-1.5
		c-0.2-0.4-0.6-0.6-1.1-0.9c-0.5-0.2-1.1-0.4-2-0.4h-1.6c-0.6,0-0.9,0.2-0.9,0.9v5.2h2.2c1,0,1.6-0.1,1.9-0.2
		c0.2-0.2,0.4-0.6,0.4-1.4c0.1-0.1,0.2-0.1,0.4-0.1c0.2,0,0.4,0,0.4,0.1c0,1,0,1.7,0,2.1c0,0.2,0,1,0,2.1c-0.1,0.1-0.2,0.1-0.4,0.1
		c-0.2,0-0.4,0-0.4-0.1c0-0.5-0.1-0.7-0.1-1c-0.1-0.2-0.2-0.4-0.6-0.5C478.9,296.7,478.4,296.7,477.7,296.7z"/>
	<path fill="#FFFFFF" d="M500,296.4c0,2-0.5,3.7-1.5,5.2c-0.6,1-1.5,1.7-2.6,2.2c-1.1,0.5-2.2,0.7-3.6,0.7c-2.1,0-4-0.7-5.5-2.1
		c-1.5-1.5-2.2-3.4-2.2-5.7c0-2.1,0.5-4,1.6-5.5c0.6-1,1.5-1.6,2.5-2.2c1-0.5,2.1-0.7,3.2-0.7c2.2,0,4.1,0.7,5.6,2.1
		C499.3,292.1,500,294.1,500,296.4z M492,289.3c-0.6,0-1.1,0.1-1.7,0.4c-0.5,0.2-1.1,0.7-1.5,1.2c-0.5,0.5-0.9,1.2-1.1,2.2
		c-0.2,1-0.5,2-0.5,3.2c0,2.2,0.6,4,1.7,5.3s2.5,2,4.1,2c1.4,0,2.6-0.6,3.5-1.9c0.9-1.2,1.4-3,1.4-5.1c0-2.4-0.5-4.2-1.6-5.6
		C494.9,290,493.6,289.3,492,289.3z"/>
	<path fill="#FFFFFF" d="M515.7,292.1c0-0.6,0-1-0.1-1.2c0-0.2-0.1-0.5-0.4-0.7c-0.2-0.1-0.4-0.2-0.6-0.4c-0.2,0-0.6-0.1-1.1-0.1
		c-0.1-0.1-0.1-0.2-0.1-0.4c0-0.2,0-0.4,0.1-0.5c1.6,0,2.5,0,2.7,0c0.2,0,1.1,0,2.7,0c0.1,0.1,0.1,0.2,0.1,0.5c0,0.2,0,0.4-0.1,0.4
		c-0.9,0.1-1.5,0.2-1.7,0.5c-0.2,0.2-0.4,0.9-0.4,1.9v11.8c0,0.5-0.2,0.9-0.5,0.9c-0.4,0-0.6-0.2-1-0.6l-8.5-10.7
		c-0.4-0.5-0.7-0.7-0.9-0.7s-0.2,0.4-0.2,1.2v7.3c0,0.6,0,1,0.1,1.2c0,0.2,0.1,0.5,0.4,0.7c0.2,0.1,0.4,0.2,0.6,0.4
		c0.2,0,0.6,0.1,1.1,0.1c0.1,0.1,0.1,0.2,0.1,0.5c0,0.2,0,0.4-0.1,0.4c-1.6,0-2.5,0-2.7,0c-0.2,0-1.1,0-2.7,0
		c-0.1-0.1-0.1-0.2-0.1-0.4c0-0.2,0-0.4,0.1-0.5c0.9-0.1,1.5-0.2,1.7-0.5c0.2-0.2,0.4-0.9,0.4-2v-10.1c-0.1-0.4-0.2-0.7-0.6-1
		c-0.4-0.4-0.7-0.5-1.2-0.5c-0.1-0.1-0.1-0.2-0.1-0.4c0-0.1,0-0.4,0.1-0.5h3.4l8.3,10.7c0.1,0.1,0.2,0.2,0.4,0.5
		c0.1,0.1,0.2,0.4,0.2,0.4c0.1,0.1,0.1,0.1,0.2,0.2c0.1,0.1,0.1,0.1,0.1,0.1h0.1c0.1,0,0.1-0.2,0.1-0.7L515.7,292.1L515.7,292.1z"/>
	<path fill="#FFFFFF" d="M524.2,302.5c0,0.1,0,0.2-0.1,0.4c0,0.1,0,0.2,0.1,0.2c0.1,0.1,0.2,0.1,0.2,0.2c0.1,0,0.2,0.1,0.4,0.1
		c0.2,0,0.4,0.1,0.5,0.1c0.1,0,0.2,0,0.5,0c0.1,0.1,0.1,0.2,0.1,0.5c0,0.2,0,0.4-0.1,0.4c-1.2,0-2.2,0-3.1,0c-0.2,0-1,0-2.2,0
		c-0.1-0.1-0.1-0.2-0.1-0.4c0-0.2,0-0.4,0.1-0.5c0.6,0,1.1-0.1,1.5-0.4c0.4-0.2,0.6-0.6,1-1.4l5.6-12.9c0.4,0,0.7-0.1,1.4-0.5
		l5,13.9c0.1,0.2,0.2,0.5,0.4,0.7c0.1,0.1,0.4,0.2,0.6,0.4c0.2,0.1,0.4,0.1,0.5,0.1c0.1,0,0.4,0,0.7,0.1c0.1,0.1,0.1,0.2,0.1,0.5
		c0,0.2,0,0.4-0.1,0.4c-1.2,0-2.1,0-2.7,0c-0.9,0-2,0-3.2,0c-0.1-0.1-0.1-0.2-0.1-0.4c0-0.2,0-0.4,0.1-0.5c0.1,0,0.2,0,0.4,0
		c0.1,0,0.2,0,0.4,0c0.1,0,0.2,0,0.4,0c0.1,0,0.2,0,0.2,0c0.1,0,0.1,0,0.2-0.1c0.1,0,0.1-0.1,0.1-0.1l0.1-0.1c0-0.1,0-0.1,0-0.2
		s0-0.1,0-0.2l-1.4-4.1h-5.1c-0.2,0-0.5,0-0.6,0.1c-0.1,0-0.2,0.1-0.2,0.4L524.2,302.5z M526.8,297.5h4.4l-2.2-6.6h-0.1l-2.5,6.3
		v0.1v0.1h0.1c0,0,0.1,0,0.2,0C526.7,297.5,526.7,297.5,526.8,297.5z"/>
</g>
<g>
	<path fill="#FFFFFF" d="M394.1,314.2h4.2v-7.6c-1.7,0.5-3.6,1.1-5.3,1.7C393.4,310.2,393.7,312.2,394.1,314.2z"/>
	<path fill="#FFFFFF" d="M388.6,310c-2.7,1.1-5.5,2.5-8.2,4.1c0,0-0.1,0-0.1,0.1h11.8c-0.4-1.6-0.9-3.4-1.4-5.1
		C390,309.4,389.4,309.7,388.6,310z"/>
	<path fill="#FFFFFF" d="M392.4,306.5c2-0.6,3.9-1.1,5.8-1.5v-8.7c-2.7,0.5-5.6,1.1-8.6,2.1C390.7,301,391.6,303.8,392.4,306.5z"/>
	<path fill="#FFFFFF" d="M386.6,297.8c-0.9-2-1.7-4-2.9-6.1c-1.2,0.6-2.4,1.4-3.4,2.2c-3.1,2.5-5.3,5.7-6.2,9.6
		c2.1-1.2,4.1-2.4,6.2-3.2C382.4,299.3,384.5,298.4,386.6,297.8z"/>
	<path fill="#FFFFFF" d="M380.4,311.3c2.7-1.4,5.5-2.6,8.2-3.6c0.5-0.2,1-0.4,1.5-0.5c-0.5-1.5-1-3-1.5-4.5
		c-0.4-1.1-0.9-2.2-1.4-3.5c-2.2,0.9-4.5,1.9-6.8,3c-2.1,1.1-4.4,2.4-6.6,3.7c-0.1,2.5,0.4,5.2,1.6,8.1
		C377.1,313.1,378.7,312.2,380.4,311.3z"/>
	<path fill="#FFFFFF" d="M370.5,307.4l-1.9-0.2c0.6-0.5,1.4-1,2-1.4c0.9-6.3,4.5-11.8,9.8-15c0.7-0.5,1.5-0.9,2.2-1.1
		c-0.1-0.4-0.4-0.7-0.5-1l1-4c0.7,1.4,1.5,2.7,2.2,4.1c1.1-0.2,2.1-0.5,3.2-0.6c3.1-0.4,6.3,0.1,9.7,1.4V279h-35.2v35.2h8.1
		C370.6,311.8,370.3,309.6,370.5,307.4z"/>
	<path fill="#FFFFFF" d="M388.6,290c-0.7,0.1-1.5,0.4-2.2,0.6c0.7,1.6,1.6,3.4,2.2,5c0.2,0.5,0.4,1,0.6,1.5c3-0.7,6-1.4,9.1-1.6
		v-5.2C395.1,289.3,391.7,289.2,388.6,290z"/>
	<path fill="#FFFFFF" d="M380.4,293.9c1-0.9,2.2-1.6,3.4-2.2c1,2.1,2,4.1,2.9,6.1c-2.1,0.6-4.2,1.5-6.2,2.4c-2.1,1-4.2,2-6.2,3.2
		C375.1,299.7,377.3,296.3,380.4,293.9z M373.8,306.1c2.2-1.5,4.5-2.7,6.6-3.7c2.4-1.2,4.6-2.2,6.8-3c0.5,1.1,1,2.4,1.4,3.5
		c0.6,1.5,1.1,3,1.5,4.5c-0.5,0.1-1,0.4-1.5,0.5c-2.7,1-5.5,2.2-8.2,3.6c-1.6,0.9-3.4,1.7-5,2.7
		C374.2,311.3,373.7,308.6,373.8,306.1z"/>
</g>
<g>
	<path fill="#FFFFFF" d="M245.9,293.7v3.7c0,0.4,0,0.7,0,1s0.1,0.6,0.2,0.9c0.1,0.4,0.2,0.6,0.5,0.9c0.5,0.5,1.1,0.7,1.7,0.7
		c0.5,0,0.9-0.1,1.2-0.2c0.4-0.1,0.6-0.4,0.7-0.5c0.1-0.2,0.4-0.5,0.5-0.9c0.1-0.4,0.1-0.6,0.2-1c0-0.2,0-0.6,0-1v-3.6
		c0-0.4,0-0.5,0-0.7c0-0.1-0.1-0.2-0.2-0.4c-0.1-0.1-0.2-0.1-0.4-0.1c-0.1,0-0.4,0-0.7-0.1c0,0,0-0.1,0-0.2c0-0.1,0-0.2,0-0.2
		c1,0,1.5,0,1.7,0c0,0,0.5,0,1.5,0c0,0,0,0.1,0,0.2c0,0.1,0,0.2,0,0.2c-0.4,0-0.6,0.1-0.7,0.1c-0.1,0-0.2,0.1-0.2,0.4
		c-0.1,0.1-0.1,0.5-0.1,0.9v3.4c0,0.7,0,1.2-0.1,1.7c-0.1,0.5-0.2,1-0.6,1.4c-0.2,0.4-0.6,0.7-1.1,1c-0.5,0.2-1.1,0.4-1.9,0.4
		c-0.4,0-0.7,0-1.1-0.1c-0.4-0.1-0.7-0.2-1.1-0.5c-0.4-0.2-0.6-0.6-0.9-1.1s-0.4-1.1-0.4-1.7v-4.2c0-0.6-0.1-0.9-0.2-1.1
		c-0.1-0.1-0.5-0.2-0.9-0.2c0,0,0-0.1,0-0.2c0-0.1,0-0.2,0-0.2c1,0,1.5,0,1.7,0c0.4,0,1,0,2,0c0,0,0,0.1,0,0.2c0,0.1,0,0.2,0,0.2
		c-0.6,0-1,0.1-1.1,0.2C245.9,292.8,245.9,293.2,245.9,293.7z"/>
	<path fill="#FFFFFF" d="M262.2,293.8c0-0.4,0-0.6,0-0.7c0-0.1-0.1-0.4-0.2-0.4c-0.1-0.1-0.2-0.1-0.4-0.2c-0.1,0-0.4,0-0.6-0.1
		c0,0-0.1-0.1-0.1-0.2c0-0.1,0-0.2,0.1-0.2c1,0,1.5,0,1.6,0s0.6,0,1.6,0c0,0,0,0.1,0,0.2c0,0.1,0,0.2,0,0.2c-0.5,0-0.9,0.1-1,0.4
		c-0.1,0.1-0.2,0.5-0.2,1.1v7.1c0,0.4-0.1,0.5-0.4,0.5c-0.2,0-0.4-0.1-0.6-0.4l-5.1-6.5c-0.2-0.4-0.4-0.5-0.5-0.5s-0.1,0.2-0.1,0.7
		v4.6c0,0.4,0,0.6,0,0.7c0,0.1,0.1,0.4,0.2,0.4c0.1,0.1,0.2,0.1,0.4,0.2c0.1,0,0.4,0,0.6,0.1c0,0,0,0.1,0,0.2c0,0.1,0,0.2,0,0.2
		c-1,0-1.5,0-1.6,0c-0.1,0-0.6,0-1.6,0c0,0-0.1-0.1-0.1-0.2c0-0.1,0-0.2,0.1-0.2c0.5,0,0.9-0.1,1-0.4c0.1-0.1,0.2-0.5,0.2-1.1v-6.1
		c0-0.2-0.1-0.4-0.4-0.6c-0.2-0.2-0.5-0.2-0.7-0.4c0,0-0.1-0.1-0.1-0.2c0-0.1,0-0.2,0.1-0.2h2l5,6.5c0.1,0.1,0.1,0.1,0.2,0.2
		s0.1,0.2,0.1,0.2l0.1,0.1l0.1,0.1c0,0,0,0,0.1,0s0.1-0.1,0.1-0.5V293.8z"/>
	<path fill="#FFFFFF" d="M268.1,299.5c0,0.6,0.1,1,0.2,1.1c0.1,0.1,0.5,0.2,1,0.2c0,0,0,0.1,0,0.2c0,0.1,0,0.2,0,0.2
		c-1,0-1.6,0-1.9,0c-0.4,0-1,0-1.9,0c0,0-0.1-0.1-0.1-0.2c0-0.1,0-0.2,0.1-0.2c0.5,0,0.9-0.1,1-0.2c0.1-0.1,0.2-0.5,0.2-1.1v-5.8
		c0-0.6-0.1-1-0.2-1.1c-0.1-0.1-0.5-0.2-1-0.2c0,0-0.1-0.1-0.1-0.2c0-0.1,0-0.2,0.1-0.2c1,0,1.6,0,1.9,0c0.4,0,1,0,1.9,0
		c0,0,0,0.1,0,0.2c0,0.1,0,0.2,0,0.2c-0.5,0-0.9,0.1-1,0.2c-0.1,0.1-0.2,0.5-0.2,1.1V299.5z"/>
	<path fill="#FFFFFF" d="M277.3,292.4c0,0,0-0.1,0-0.2c0-0.1,0-0.2,0-0.2c0.9,0,1.5,0,1.6,0s0.5,0,1.2,0c0,0,0.1,0.1,0.1,0.2
		c0,0.1,0,0.2-0.1,0.2c-0.1,0-0.4,0.1-0.5,0.1c-0.1,0.1-0.2,0.1-0.4,0.1s-0.1,0.1-0.2,0.2c-0.1,0.1-0.1,0.2-0.1,0.4
		s-0.1,0.2-0.1,0.4l-3,7.5c-0.1,0.2-0.2,0.4-0.4,0.4c-0.1,0-0.2-0.1-0.4-0.4l-2.9-7.5c-0.2-0.6-0.4-0.9-0.5-1.1
		c-0.1-0.2-0.4-0.2-0.7-0.2c0,0-0.1-0.1-0.1-0.2c0-0.1,0-0.2,0-0.2c0.9,0,1.4,0,1.5,0c0.2,0,0.9,0,1.7,0c0,0,0,0.1,0,0.2
		c0,0.1,0,0.2,0,0.2c-0.5,0-0.7,0.1-0.9,0.2c-0.1,0.1,0,0.4,0.1,0.9l2.4,6h0.1l2.4-5.8c0.1-0.4,0.2-0.7,0.1-0.9
		C278.2,292.6,277.8,292.4,277.3,292.4z"/>
	<path fill="#FFFFFF" d="M285.4,296.1c0.6,0,1,0,1.1-0.1c0.1-0.1,0.2-0.4,0.2-0.9c0,0,0.1-0.1,0.2-0.1s0.2,0,0.2,0.1
		c0,0.6,0,1,0,1.2c0,0.1,0,0.6,0,1.2c0,0-0.1,0.1-0.2,0.1s-0.2,0-0.2-0.1c0-0.2,0-0.5-0.1-0.6c0-0.1-0.1-0.2-0.4-0.2
		c-0.2-0.1-0.5-0.1-0.9-0.1H284v3.6c0,0.4,0.1,0.6,0.5,0.6h2c0.9,0,1.6-0.6,1.9-2c0.1,0,0.4,0,0.5,0.1c-0.1,0.7-0.2,1.6-0.5,2.4
		c-0.7,0-1.4,0-1.9,0h-3.1c-0.7,0-1.4,0-1.9,0c0,0,0-0.1,0-0.2c0-0.1,0-0.2,0-0.2c0.5,0,0.9-0.1,1-0.2c0.1-0.1,0.2-0.5,0.2-1.1v-5.8
		c0-0.6-0.1-1-0.2-1.1c-0.1-0.1-0.5-0.2-1-0.2c0,0,0-0.1,0-0.2s0-0.2,0-0.2h1.9h3.7c0.2,0,0.5,0,0.7,0l0,0c0.1,0.4,0.1,1,0.4,2.1
		c-0.1,0.1-0.4,0.1-0.5,0.1c-0.1-0.6-0.4-1-0.6-1.2c-0.2-0.2-0.5-0.4-1.1-0.4h-1.5c-0.1,0-0.2,0-0.4,0.1c-0.1,0.1-0.1,0.2-0.1,0.5v3
		h1.4V296.1z"/>
	<path fill="#FFFFFF" d="M293,299.5c0,0.6,0.1,0.9,0.2,1.1c0.1,0.1,0.5,0.2,1,0.2c0,0.1,0,0.1,0,0.2c0,0.1,0,0.2,0,0.2
		c-1,0-1.6,0-1.9,0c-0.4,0-1,0-1.9,0c0,0-0.1-0.1-0.1-0.2c0-0.1,0-0.2,0.1-0.2c0.5,0,0.9-0.1,1-0.2c0.1-0.1,0.2-0.5,0.2-1.1v-5.8
		c0-0.6-0.1-1-0.2-1.1c-0.1-0.1-0.5-0.2-1-0.2c0,0-0.1-0.1-0.1-0.2c0-0.1,0-0.2,0.1-0.2c1,0,1.6,0,1.9,0c0.2,0,0.5,0,1,0
		s0.7,0,0.9,0c0.5,0,1,0,1.4,0.1s0.7,0.2,1,0.6c0.5,0.5,0.7,1.1,0.7,1.9c0,0.6-0.2,1.2-0.6,1.6s-0.9,0.7-1.2,0.9l1.9,3.1
		c0.2,0.4,0.5,0.6,0.6,0.9c0.2,0.2,0.5,0.2,0.7,0.2c0.1,0.1,0.1,0.2,0,0.4c-0.1,0.1-0.4,0.1-0.6,0.1c-0.7,0-1.4-0.5-2-1.4l-1.5-2.5
		c-0.1-0.2-0.2-0.4-0.5-0.4c-0.2-0.1-0.6-0.1-1.2-0.1v2.2H293z M294.1,292.3c-0.7,0-1.2,0.2-1.2,0.9v3.4h0.7c0.7,0,1.4-0.1,1.9-0.5
		c0.4-0.4,0.6-0.9,0.6-1.7C296.1,292.9,295.5,292.3,294.1,292.3z"/>
	<path fill="#FFFFFF" d="M305.3,292.1c0.1,0.6,0.2,1.2,0.2,1.9c-0.1,0-0.2,0.1-0.5,0.1c0-0.1-0.1-0.2-0.1-0.4s-0.1-0.2-0.1-0.4
		c-0.1-0.1-0.1-0.2-0.2-0.4c-0.1-0.1-0.1-0.2-0.2-0.2c-0.1-0.1-0.2-0.1-0.4-0.2c-0.1,0-0.2-0.1-0.5-0.1c-0.1,0-0.4,0-0.5,0
		c-0.4,0-0.7,0.1-1.1,0.5s-0.5,0.7-0.5,1.1c0,0.2,0,0.5,0.1,0.6c0.1,0.2,0.2,0.4,0.4,0.5s0.4,0.2,0.5,0.4c0.2,0.1,0.4,0.2,0.6,0.2
		c0.1,0.1,0.4,0.1,0.6,0.2c0.2,0.1,0.4,0.1,0.5,0.1c0.2,0.1,0.5,0.2,0.7,0.4c0.2,0.1,0.5,0.4,0.6,0.5c0.2,0.2,0.4,0.5,0.5,0.7
		c0.1,0.2,0.1,0.6,0.1,0.9c0,0.5-0.1,0.9-0.4,1.4c-0.2,0.4-0.6,0.7-1,1c-0.5,0.4-1.1,0.5-1.9,0.5c-0.5,0-1,0-1.5-0.1s-1-0.1-1.2-0.1
		c-0.1-0.6-0.2-1.4-0.2-2.2c0.1-0.1,0.4-0.1,0.5,0c0.4,1.4,1.2,2.1,2.6,2.1c0.6,0,1-0.1,1.4-0.5c0.4-0.2,0.5-0.7,0.5-1.4
		c0-0.2,0-0.5-0.1-0.7c-0.1-0.2-0.1-0.4-0.2-0.5c-0.1-0.1-0.2-0.2-0.5-0.4c-0.2-0.1-0.4-0.2-0.5-0.2c-0.1,0-0.4-0.1-0.5-0.2
		c-0.2-0.1-0.4-0.1-0.5-0.2c-0.5-0.1-0.9-0.4-1.1-0.6c-0.2-0.2-0.5-0.5-0.7-0.9c-0.2-0.4-0.4-0.7-0.4-1.1c0-0.7,0.2-1.4,0.9-1.9
		c0.6-0.5,1.2-0.7,2-0.7c0.5,0,1,0.1,1.5,0.2C304.9,292.1,305.2,292.1,305.3,292.1z"/>
	<path fill="#FFFFFF" d="M310.2,299.5c0,0.6,0.1,1,0.2,1.1c0.1,0.1,0.5,0.2,1,0.2c0,0,0,0.1,0,0.2c0,0.1,0,0.2,0,0.2
		c-1,0-1.6,0-1.9,0c-0.4,0-1,0-1.9,0c0,0-0.1-0.1-0.1-0.2c0-0.1,0-0.2,0.1-0.2c0.5,0,0.9-0.1,1-0.2c0.1-0.1,0.2-0.5,0.2-1.1v-5.8
		c0-0.6-0.1-1-0.2-1.1c-0.1-0.1-0.5-0.2-1-0.2c0,0-0.1-0.1-0.1-0.2c0-0.1,0-0.2,0.1-0.2c1,0,1.6,0,1.9,0c0.4,0,1,0,1.9,0
		c0,0,0,0.1,0,0.2c0,0.1,0,0.2,0,0.2c-0.5,0-0.9,0.1-1,0.2c-0.1,0.1-0.2,0.5-0.2,1.1V299.5z"/>
	<path fill="#FFFFFF" d="M314.9,291.9c0.1,0,0.5,0,1.1,0c0.5,0,1,0,1.4,0c1.4,0,2.6,0.5,3.6,1.5c1,1,1.5,2.1,1.5,3.5
		c0,0.9-0.1,1.6-0.5,2.2c-0.2,0.6-0.7,1.1-1.2,1.4c-0.5,0.4-1,0.5-1.5,0.7c-0.5,0.1-1.1,0.2-1.6,0.2c-0.6,0-1.1,0-1.7,0
		c-0.5,0-0.9,0-1,0c-0.4,0-1,0-1.9,0c0,0-0.1-0.1-0.1-0.2s0-0.2,0.1-0.2c0.5,0,0.9-0.1,1-0.2s0.2-0.5,0.2-1.1v-5.8
		c0-0.6-0.1-1-0.2-1.1c-0.1-0.1-0.5-0.2-1-0.2c0,0-0.1-0.1-0.1-0.2c0-0.1,0-0.2,0.1-0.2C314,291.9,314.6,291.9,314.9,291.9z
		 M315.5,300c0,0.2,0.1,0.5,0.2,0.6c0.2,0.1,0.6,0.1,1.2,0.1c0.5,0,1,0,1.5-0.1c0.4-0.1,0.9-0.2,1.2-0.5c0.4-0.2,0.6-0.6,0.9-1.1
		c0.2-0.5,0.2-1.1,0.2-1.9c0-0.6-0.1-1.1-0.2-1.7c-0.1-0.5-0.4-1-0.7-1.5s-0.7-0.9-1.4-1.1c-0.6-0.2-1.2-0.4-2-0.4
		c-0.9,0-1.2,0.2-1.2,0.7v6.8H315.5z"/>
	<path fill="#FFFFFF" d="M325.6,300.2c0,0.1,0,0.1,0,0.2s0,0.1,0.1,0.1c0.1,0,0.1,0.1,0.1,0.1s0.1,0,0.2,0.1c0.1,0,0.2,0,0.2,0
		c0.1,0,0.1,0,0.2,0c0,0,0,0.1,0,0.2c0,0.1,0,0.2,0,0.2c-0.7,0-1.4,0-1.9,0c-0.1,0-0.6,0-1.4,0c0,0-0.1-0.1-0.1-0.2
		c0-0.1,0-0.2,0.1-0.2c0.4,0,0.6-0.1,0.9-0.2c0.2-0.1,0.4-0.4,0.6-0.9l3.4-7.8c0.2,0,0.5-0.1,0.7-0.2l3,8.3c0,0.1,0.1,0.4,0.2,0.4
		c0.1,0.1,0.2,0.1,0.4,0.2c0.1,0,0.2,0.1,0.4,0.1s0.2,0,0.4,0c0,0,0.1,0.1,0.1,0.2s0,0.2-0.1,0.2c-0.7,0-1.2,0-1.6,0
		c-0.5,0-1.2,0-1.9,0c0,0,0-0.1,0-0.2s0-0.2,0-0.2s0.1,0,0.2,0c0.1,0,0.1,0,0.2,0c0,0,0.1,0,0.2,0s0.1,0,0.1,0h0.1
		c0,0,0.1,0,0.1-0.1v-0.1v-0.1v-0.1l-0.9-2.5h-3.1c-0.1,0-0.2,0-0.4,0c-0.1,0-0.1,0.1-0.1,0.2L325.6,300.2z M327.1,297.2h2.6l-1.4-4
		h-0.1l-1.5,3.7c0,0,0,0,0,0.1l0,0c0,0,0,0,0.1,0h0.1C326.9,297.2,327.1,297.2,327.1,297.2z"/>
	<path fill="#FFFFFF" d="M336.4,291.9c0.1,0,0.5,0,1.1,0c0.5,0,1,0,1.4,0c1.4,0,2.6,0.5,3.6,1.5s1.5,2.1,1.5,3.5
		c0,0.9-0.1,1.6-0.5,2.2c-0.2,0.6-0.7,1.1-1.2,1.4c-0.5,0.4-1,0.5-1.5,0.7c-0.5,0.1-1.1,0.2-1.6,0.2c-0.6,0-1.1,0-1.7,0
		c-0.5,0-0.9,0-1,0c-0.4,0-1,0-1.9,0c0,0-0.1-0.1-0.1-0.2s0-0.2,0.1-0.2c0.5,0,0.9-0.1,1-0.2s0.2-0.5,0.2-1.1v-5.8
		c0-0.6-0.1-1-0.2-1.1c-0.1-0.1-0.5-0.2-1-0.2c0,0-0.1-0.1-0.1-0.2c0-0.1,0-0.2,0.1-0.2C335.4,291.9,336,291.9,336.4,291.9z
		 M337,300c0,0.2,0.1,0.5,0.2,0.6c0.2,0.1,0.6,0.1,1.2,0.1c0.5,0,1,0,1.5-0.1c0.4-0.1,0.9-0.2,1.2-0.5c0.4-0.2,0.6-0.6,0.9-1.1
		c0.2-0.5,0.2-1.1,0.2-1.9c0-0.6-0.1-1.1-0.2-1.7c-0.1-0.5-0.4-1-0.7-1.5c-0.4-0.5-0.7-0.9-1.4-1.1c-0.6-0.2-1.2-0.4-2-0.4
		c-0.9,0-1.2,0.2-1.2,0.7v6.8H337z"/>
	<path fill="#FFFFFF" d="M349.2,296.1c0.6,0,1,0,1.1-0.1c0.1-0.1,0.2-0.4,0.2-0.9c0,0,0.1-0.1,0.2-0.1c0.1,0,0.2,0,0.2,0.1
		c0,0.6,0,1,0,1.2c0,0.1,0,0.6,0,1.2c0,0-0.1,0.1-0.2,0.1c-0.1,0-0.2,0-0.2-0.1c0-0.2,0-0.5-0.1-0.6c0-0.1-0.1-0.2-0.4-0.2
		c-0.2-0.1-0.5-0.1-0.9-0.1h-1.4v3.6c0,0.4,0.1,0.6,0.5,0.6h2c0.9,0,1.6-0.6,1.9-2c0.1,0,0.4,0,0.5,0.1c-0.1,0.7-0.2,1.6-0.5,2.4
		c-0.7,0-1.4,0-1.9,0h-3.1c-0.7,0-1.4,0-1.9,0c0,0,0-0.1,0-0.2c0-0.1,0-0.2,0-0.2c0.5,0,0.9-0.1,1-0.2c0.1-0.1,0.2-0.5,0.2-1.1v-5.8
		c0-0.6-0.1-1-0.2-1.1c-0.1-0.1-0.5-0.2-1-0.2c0,0,0-0.1,0-0.2s0-0.2,0-0.2h1.9h3.7c0.2,0,0.5,0,0.7,0l0,0c0.1,0.4,0.1,1,0.4,2.1
		c-0.1,0.1-0.4,0.1-0.5,0.1c-0.1-0.6-0.4-1-0.6-1.2c-0.2-0.2-0.5-0.4-1.1-0.4h-1.5c-0.1,0-0.2,0-0.4,0.1s-0.1,0.2-0.1,0.5v3h1.4
		V296.1z"/>
</g>
</svg>
